<svg xmlns="http://www.w3.org/2000/svg" width="1200" height="630" viewBox="0 0 1200 630">
  <defs><linearGradient id="og-sky" x1="0" y1="0" x2="0" y2="1">
    <stop offset="0%" stop-color="#CDEBF6"/>
    <stop offset="62%" stop-color="#EAF6DA"/>
    <stop offset="100%" stop-color="#E7F0DD"/></linearGradient>
  <radialGradient id="og-sun" cx="50%" cy="50%" r="50%">
    <stop offset="0%" stop-color="#FFF1C2" stop-opacity="0.95"/>
    <stop offset="55%" stop-color="#FFF1C2" stop-opacity="0.45"/>
    <stop offset="100%" stop-color="#FFF1C2" stop-opacity="0"/></radialGradient>
  <linearGradient id="og-soil" x1="0" y1="0" x2="0" y2="1">
    <stop offset="0%" stop-color="#A98559"/>
    <stop offset="100%" stop-color="#7C5C38"/></linearGradient>
  <radialGradient id="og-soilshade" cx="50%" cy="0%" r="80%">
    <stop offset="0%" stop-color="#b59670" stop-opacity="0.9"/>
    <stop offset="100%" stop-color="#A98559" stop-opacity="0"/></radialGradient>
  <linearGradient id="og-panel" x1="0" y1="0" x2="0" y2="1">
    <stop offset="0%" stop-color="#FFFFFF" stop-opacity="0.0"/>
    <stop offset="100%" stop-color="#FFFFFF" stop-opacity="0.0"/></linearGradient><radialGradient id="og-sl-0" cx="50%" cy="45%" r="60%">
      <stop offset="0%" stop-color="#FFFFFF"/><stop offset="45%" stop-color="#A9C0FF"/><stop offset="100%" stop-color="#4A4F9E"/></radialGradient><radialGradient id="og-laura-1" cx="50%" cy="50%" r="50%">
    <stop offset="0%" stop-color="#BFD0FF" stop-opacity="0.55"/>
    <stop offset="55%" stop-color="#BFD0FF" stop-opacity="0.22"/>
    <stop offset="100%" stop-color="#BFD0FF" stop-opacity="0"/></radialGradient><radialGradient id="og-cr-2" cx="50%" cy="42%" r="65%">
      <stop offset="0%" stop-color="#FFFFFF"/><stop offset="50%" stop-color="#FF9AD0"/><stop offset="100%" stop-color="#C0418F"/></radialGradient><radialGradient id="og-laura-3" cx="50%" cy="50%" r="50%">
    <stop offset="0%" stop-color="#FFB8E8" stop-opacity="0.55"/>
    <stop offset="55%" stop-color="#FFB8E8" stop-opacity="0.22"/>
    <stop offset="100%" stop-color="#FFB8E8" stop-opacity="0"/></radialGradient><linearGradient id="og-gl-petal-4" x1="0%" y1="0%" x2="100%" y2="100%">
      <stop offset="0%" stop-color="#C9A0FF"/><stop offset="55%" stop-color="#80B0FF"/><stop offset="100%" stop-color="#3E3E7A"/></linearGradient>
    <radialGradient id="og-gl-core-5" cx="50%" cy="50%" r="55%">
      <stop offset="0%" stop-color="#EAF0FF"/><stop offset="45%" stop-color="#6A78D8"/><stop offset="100%" stop-color="#23234E"/></radialGradient><radialGradient id="og-taura-6" cx="50%" cy="50%" r="50%">
    <stop offset="0%" stop-color="#C9B8FF" stop-opacity="0.6"/>
    <stop offset="50%" stop-color="#C9B8FF" stop-opacity="0.26"/>
    <stop offset="100%" stop-color="#C9B8FF" stop-opacity="0"/></radialGradient><radialGradient id="og-gp-7" cx="50%" cy="50%" r="60%">
      <stop offset="0%" stop-color="#FFF3C0"/><stop offset="55%" stop-color="#FFD24A"/><stop offset="100%" stop-color="#E0902A"/></radialGradient><radialGradient id="og-laura-8" cx="50%" cy="50%" r="50%">
    <stop offset="0%" stop-color="#FFE08A" stop-opacity="0.55"/>
    <stop offset="55%" stop-color="#FFE08A" stop-opacity="0.22"/>
    <stop offset="100%" stop-color="#FFE08A" stop-opacity="0"/></radialGradient><linearGradient id="og-tol-leaf-9" x1="0" y1="0" x2="0" y2="1">
      <stop offset="0%" stop-color="#8caf78"/><stop offset="100%" stop-color="#4a7333"/></linearGradient><radialGradient id="og-laura-10" cx="50%" cy="50%" r="50%">
    <stop offset="0%" stop-color="#FFD44A" stop-opacity="0.55"/>
    <stop offset="55%" stop-color="#FFD44A" stop-opacity="0.22"/>
    <stop offset="100%" stop-color="#FFD44A" stop-opacity="0"/></radialGradient><radialGradient id="og-ct-core-11" cx="50%" cy="42%" r="62%">
      <stop offset="0%" stop-color="#FFFFFF"/><stop offset="45%" stop-color="#FFF1A8"/><stop offset="100%" stop-color="#F2B33A"/></radialGradient>
    <radialGradient id="og-ct-halo-12" cx="50%" cy="50%" r="50%">
      <stop offset="0%" stop-color="#FFE89A" stop-opacity="0.7"/><stop offset="100%" stop-color="#FFE89A" stop-opacity="0"/></radialGradient><radialGradient id="og-taura-13" cx="50%" cy="50%" r="50%">
    <stop offset="0%" stop-color="#FFE6B8" stop-opacity="0.6"/>
    <stop offset="50%" stop-color="#FFE6B8" stop-opacity="0.26"/>
    <stop offset="100%" stop-color="#FFE6B8" stop-opacity="0"/></radialGradient></defs>
  <rect width="1200" height="630" fill="url(#og-sky)"/>
  <circle cx="980" cy="150" r="260" fill="url(#og-sun)"/>
  <circle cx="447" cy="387" r="1.7" fill="#FFFFFF" opacity="0.44"/><circle cx="205" cy="59" r="2.2" fill="#FFFFFF" opacity="0.50"/><circle cx="778" cy="121" r="1.9" fill="#FFFFFF" opacity="0.60"/><circle cx="988" cy="221" r="2.1" fill="#FFFFFF" opacity="0.26"/><circle cx="706" cy="148" r="0.8" fill="#FFFFFF" opacity="0.34"/><circle cx="429" cy="130" r="1.8" fill="#FFFFFF" opacity="0.28"/><circle cx="1100" cy="246" r="1.2" fill="#FFFFFF" opacity="0.49"/><circle cx="540" cy="380" r="2.1" fill="#FFFFFF" opacity="0.60"/><circle cx="74" cy="201" r="1.5" fill="#FFFFFF" opacity="0.65"/><circle cx="731" cy="182" r="1.5" fill="#FFFFFF" opacity="0.31"/><circle cx="388" cy="120" r="1.9" fill="#FFFFFF" opacity="0.64"/><circle cx="149" cy="324" r="1.1" fill="#FFFFFF" opacity="0.36"/><circle cx="1137" cy="99" r="1.5" fill="#FFFFFF" opacity="0.29"/><circle cx="996" cy="113" r="1.4" fill="#FFFFFF" opacity="0.63"/><circle cx="734" cy="163" r="1.3" fill="#FFFFFF" opacity="0.31"/><circle cx="246" cy="54" r="1.6" fill="#FFFFFF" opacity="0.28"/><circle cx="491" cy="125" r="1.3" fill="#FFFFFF" opacity="0.51"/><circle cx="457" cy="77" r="1.5" fill="#FFFFFF" opacity="0.30"/><circle cx="799" cy="59" r="2.5" fill="#FFFFFF" opacity="0.44"/><circle cx="293" cy="69" r="1.3" fill="#FFFFFF" opacity="0.37"/><circle cx="868" cy="202" r="1.2" fill="#FFFFFF" opacity="0.29"/><circle cx="188" cy="90" r="1.2" fill="#FFFFFF" opacity="0.39"/><circle cx="1068" cy="86" r="0.8" fill="#FFFFFF" opacity="0.60"/><circle cx="550" cy="110" r="2.8" fill="#FFFFFF" opacity="0.30"/><circle cx="120" cy="121" r="0.9" fill="#FFFFFF" opacity="0.34"/><circle cx="11" cy="76" r="2.6" fill="#FFFFFF" opacity="0.36"/>
  <path d="M0 470 Q300 420 600 460 T1200 450 L1200 630 L0 630 Z" fill="#acc499" opacity="0.5"/>
  <path d="M0 510 Q360 470 720 505 T1200 500 L1200 630 L0 630 Z" fill="#93af82" opacity="0.6"/>
  <path d="M0 520 Q200 472 480 494 Q760 514 1000 482 Q1120 470 1200 496 L1200 630 L0 630 Z" fill="url(#og-soil)"/>
  <path d="M0 520 Q200 472 480 494 Q760 514 1000 482 Q1120 470 1200 496 L1200 560 L0 560 Z" fill="url(#og-soilshade)"/>
  <g><path d="M120 545 Q120 523 120 501" stroke="#131d0c" stroke-width="3.3000000000000003" stroke-linecap="round" fill="none"/>
    <g transform="rotate(-52 120 529.6)"><path d="M120 529.6 Q113.4 519.7 120 509.8 Q126.6 519.7 120 529.6 Z" fill="#6a984d"/></g>
    <g transform="rotate(52 120 529.6)"><path d="M120 529.6 Q113.4 519.7 120 509.8 Q126.6 519.7 120 529.6 Z" fill="#527e37"/></g>
    <circle cx="120" cy="501" r="9.9" fill="#A8D08D"/>
    <circle cx="120" cy="501" r="4.4" fill="#FFFFFF" opacity="0.55"/></g><g><path d="M1080 535 Q1080 512 1080 489" stroke="#15220c" stroke-width="3.4499999999999997" stroke-linecap="round" fill="none"/>
    <g transform="rotate(-52 1080 518.9)"><path d="M1080 518.9 Q1073.1 508.54999999999995 1080 498.2 Q1086.9 508.54999999999995 1080 518.9 Z" fill="#76b24c"/></g>
    <g transform="rotate(52 1080 518.9)"><path d="M1080 518.9 Q1073.1 508.54999999999995 1080 498.2 Q1086.9 508.54999999999995 1080 518.9 Z" fill="#5d9635"/></g>
    <circle cx="1080" cy="489" r="10.35" fill="#FFD44A"/>
    <circle cx="1080" cy="489" r="4.6" fill="#FFFFFF" opacity="0.55"/></g><g><path d="M255 560 Q255 541 255 522" stroke="#0c1c0c" stroke-width="2.8499999999999996" stroke-linecap="round" fill="none"/>
    <g transform="rotate(-52 255 546.7)"><path d="M255 546.7 Q249.3 538.1500000000001 255 529.6 Q260.7 538.1500000000001 255 546.7 Z" fill="#4a954a"/></g>
    <g transform="rotate(52 255 546.7)"><path d="M255 546.7 Q249.3 538.1500000000001 255 529.6 Q260.7 538.1500000000001 255 546.7 Z" fill="#337b33"/></g>
    <circle cx="255" cy="522" r="8.549999999999999" fill="#7FD17F"/>
    <circle cx="255" cy="522" r="3.8" fill="#FFFFFF" opacity="0.55"/></g>
  <g>
    <circle cx="360" cy="482.8" r="78" fill="url(#og-laura-1)"/>
    <g stroke="#BFD0FF" stroke-width="2.4" opacity="0.5" stroke-linecap="round"><line x1="360" y1="418.8" x2="360" y2="398.8" transform="rotate(0 360 482.8)"/><line x1="360" y1="418.8" x2="360" y2="398.8" transform="rotate(45 360 482.8)"/><line x1="360" y1="418.8" x2="360" y2="398.8" transform="rotate(90 360 482.8)"/><line x1="360" y1="418.8" x2="360" y2="398.8" transform="rotate(135 360 482.8)"/><line x1="360" y1="418.8" x2="360" y2="398.8" transform="rotate(180 360 482.8)"/><line x1="360" y1="418.8" x2="360" y2="398.8" transform="rotate(225 360 482.8)"/><line x1="360" y1="418.8" x2="360" y2="398.8" transform="rotate(270 360 482.8)"/><line x1="360" y1="418.8" x2="360" y2="398.8" transform="rotate(315 360 482.8)"/></g>
    <g stroke="#BFD0FF" stroke-width="1.6" opacity="0.35" stroke-linecap="round"><line x1="360" y1="430.8" x2="360" y2="416.8" transform="rotate(22 360 482.8)"/><line x1="360" y1="430.8" x2="360" y2="416.8" transform="rotate(67 360 482.8)"/><line x1="360" y1="430.8" x2="360" y2="416.8" transform="rotate(112 360 482.8)"/><line x1="360" y1="430.8" x2="360" y2="416.8" transform="rotate(157 360 482.8)"/><line x1="360" y1="430.8" x2="360" y2="416.8" transform="rotate(202 360 482.8)"/><line x1="360" y1="430.8" x2="360" y2="416.8" transform="rotate(247 360 482.8)"/><line x1="360" y1="430.8" x2="360" y2="416.8" transform="rotate(292 360 482.8)"/><line x1="360" y1="430.8" x2="360" y2="416.8" transform="rotate(337 360 482.8)"/></g>
    <circle cx="360" cy="482.8" r="50" fill="none" stroke="#BFD0FF" stroke-width="1.6" opacity="0.45"/>
    <path d="M360 555 Q360 525.55 360 496.1" stroke="#161c2a" stroke-width="4.2749999999999995" stroke-linecap="round" fill="none"/><g transform="rotate(-48 357.15 532.2)"><path d="M357.15 532.2 Q350.5 520.8000000000001 357.15 509.40000000000003 Q363.79999999999995 520.8000000000001 357.15 532.2 Z" fill="#4A5E8C"/></g><g transform="rotate(48 362.85 536)"><path d="M362.85 536 Q356.675 525.55 362.85 515.1 Q369.02500000000003 525.55 362.85 536 Z" fill="#4A5E8C"/></g>
    <ellipse cx="360" cy="461.90000000000003" rx="6.6499999999999995" ry="20.9" fill="url(#og-sl-0)" opacity="0.92" transform="rotate(0 360 482.8)"/><ellipse cx="360" cy="461.90000000000003" rx="6.6499999999999995" ry="20.9" fill="url(#og-sl-0)" opacity="0.92" transform="rotate(60 360 482.8)"/><ellipse cx="360" cy="461.90000000000003" rx="6.6499999999999995" ry="20.9" fill="url(#og-sl-0)" opacity="0.92" transform="rotate(120 360 482.8)"/><ellipse cx="360" cy="461.90000000000003" rx="6.6499999999999995" ry="20.9" fill="url(#og-sl-0)" opacity="0.92" transform="rotate(180 360 482.8)"/><ellipse cx="360" cy="461.90000000000003" rx="6.6499999999999995" ry="20.9" fill="url(#og-sl-0)" opacity="0.92" transform="rotate(240 360 482.8)"/><ellipse cx="360" cy="461.90000000000003" rx="6.6499999999999995" ry="20.9" fill="url(#og-sl-0)" opacity="0.92" transform="rotate(300 360 482.8)"/>
    <circle cx="360" cy="482.8" r="7.6" fill="#FFE89A"/>
    <circle cx="360" cy="482.8" r="3.04" fill="#FFFFFF"/>
    <path d="M0,-3.4 L0.9,-0.9 L3.4,0 L0.9,0.9 L0,3.4 L-0.9,0.9 L-3.4,0 L-0.9,-0.9 Z" fill="#FFFFFF" transform="translate(332 464.8) scale(0.95)"/><path d="M0,-3.4 L0.9,-0.9 L3.4,0 L0.9,0.9 L0,3.4 L-0.9,0.9 L-3.4,0 L-0.9,-0.9 Z" fill="#FFFFFF" transform="translate(392 470.8) scale(1.045)"/><path d="M0,-3.4 L0.9,-0.9 L3.4,0 L0.9,0.9 L0,3.4 L-0.9,0.9 L-3.4,0 L-0.9,-0.9 Z" fill="#FFFFFF" transform="translate(360 444.8) scale(1.2349999999999999)"/>
  </g><g>
    <circle cx="470" cy="501.76" r="78" fill="url(#og-laura-3)"/>
    <g stroke="#FFB8E8" stroke-width="2.4" opacity="0.5" stroke-linecap="round"><line x1="470" y1="437.76" x2="470" y2="417.76" transform="rotate(0 470 501.76)"/><line x1="470" y1="437.76" x2="470" y2="417.76" transform="rotate(45 470 501.76)"/><line x1="470" y1="437.76" x2="470" y2="417.76" transform="rotate(90 470 501.76)"/><line x1="470" y1="437.76" x2="470" y2="417.76" transform="rotate(135 470 501.76)"/><line x1="470" y1="437.76" x2="470" y2="417.76" transform="rotate(180 470 501.76)"/><line x1="470" y1="437.76" x2="470" y2="417.76" transform="rotate(225 470 501.76)"/><line x1="470" y1="437.76" x2="470" y2="417.76" transform="rotate(270 470 501.76)"/><line x1="470" y1="437.76" x2="470" y2="417.76" transform="rotate(315 470 501.76)"/></g>
    <g stroke="#FFB8E8" stroke-width="1.6" opacity="0.35" stroke-linecap="round"><line x1="470" y1="449.76" x2="470" y2="435.76" transform="rotate(22 470 501.76)"/><line x1="470" y1="449.76" x2="470" y2="435.76" transform="rotate(67 470 501.76)"/><line x1="470" y1="449.76" x2="470" y2="435.76" transform="rotate(112 470 501.76)"/><line x1="470" y1="449.76" x2="470" y2="435.76" transform="rotate(157 470 501.76)"/><line x1="470" y1="449.76" x2="470" y2="435.76" transform="rotate(202 470 501.76)"/><line x1="470" y1="449.76" x2="470" y2="435.76" transform="rotate(247 470 501.76)"/><line x1="470" y1="449.76" x2="470" y2="435.76" transform="rotate(292 470 501.76)"/><line x1="470" y1="449.76" x2="470" y2="435.76" transform="rotate(337 470 501.76)"/></g>
    <circle cx="470" cy="501.76" r="50" fill="none" stroke="#FFB8E8" stroke-width="1.6" opacity="0.45"/>
    <path d="M470 568 Q470 541.3199999999999 470 514.64" stroke="#1b2a13" stroke-width="4.140000000000001" stroke-linecap="round" fill="none"/><g transform="rotate(-48 467.24 545.92)"><path d="M467.24 545.92 Q460.8 534.88 467.24 523.8399999999999 Q473.68 534.88 467.24 545.92 Z" fill="#5A8C3E"/></g><g transform="rotate(48 472.76 549.6)"><path d="M472.76 549.6 Q466.78 539.48 472.76 529.36 Q478.74 539.48 472.76 549.6 Z" fill="#5A8C3E"/></g>
    <polygon points="470,464.96 460.8,496.24 470,505.44 479.2,496.24" fill="url(#og-cr-2)" opacity="0.9" transform="rotate(0 470 501.76)"/><polygon points="470,464.96 460.8,496.24 470,505.44 479.2,496.24" fill="url(#og-cr-2)" opacity="0.9" transform="rotate(45 470 501.76)"/><polygon points="470,464.96 460.8,496.24 470,505.44 479.2,496.24" fill="url(#og-cr-2)" opacity="0.9" transform="rotate(90 470 501.76)"/><polygon points="470,464.96 460.8,496.24 470,505.44 479.2,496.24" fill="url(#og-cr-2)" opacity="0.9" transform="rotate(135 470 501.76)"/><polygon points="470,464.96 460.8,496.24 470,505.44 479.2,496.24" fill="url(#og-cr-2)" opacity="0.9" transform="rotate(180 470 501.76)"/><polygon points="470,464.96 460.8,496.24 470,505.44 479.2,496.24" fill="url(#og-cr-2)" opacity="0.9" transform="rotate(225 470 501.76)"/><polygon points="470,464.96 460.8,496.24 470,505.44 479.2,496.24" fill="url(#og-cr-2)" opacity="0.9" transform="rotate(270 470 501.76)"/><polygon points="470,464.96 460.8,496.24 470,505.44 479.2,496.24" fill="url(#og-cr-2)" opacity="0.9" transform="rotate(315 470 501.76)"/>
    <polygon points="470,487.03999999999996 456.2,501.76 470,520.16 483.8,501.76" fill="#FFFFFF" opacity="0.9"/>
    <circle cx="470" cy="501.76" r="4.6000000000000005" fill="#FFFFFF"/>
    <path d="M0,-3.4 L0.9,-0.9 L3.4,0 L0.9,0.9 L0,3.4 L-0.9,0.9 L-3.4,0 L-0.9,-0.9 Z" fill="#FFFFFF" transform="translate(444 481.76) scale(0.92)"/><path d="M0,-3.4 L0.9,-0.9 L3.4,0 L0.9,0.9 L0,3.4 L-0.9,0.9 L-3.4,0 L-0.9,-0.9 Z" fill="#FFFFFF" transform="translate(500 487.76) scale(1.0120000000000002)"/><path d="M0,-3.4 L0.9,-0.9 L3.4,0 L0.9,0.9 L0,3.4 L-0.9,0.9 L-3.4,0 L-0.9,-0.9 Z" fill="#FFFFFF" transform="translate(470 467.76) scale(1.104)"/>
  </g><g>
    <circle cx="870" cy="468" r="104" fill="url(#og-taura-6)"/>
    <g stroke="#FFFFFF" stroke-width="2.6" opacity="0.6" stroke-linecap="round"><line x1="870" y1="382" x2="870" y2="356" transform="rotate(0 870 468)"/><line x1="870" y1="382" x2="870" y2="356" transform="rotate(30 870 468)"/><line x1="870" y1="382" x2="870" y2="356" transform="rotate(60 870 468)"/><line x1="870" y1="382" x2="870" y2="356" transform="rotate(90 870 468)"/><line x1="870" y1="382" x2="870" y2="356" transform="rotate(120 870 468)"/><line x1="870" y1="382" x2="870" y2="356" transform="rotate(150 870 468)"/><line x1="870" y1="382" x2="870" y2="356" transform="rotate(180 870 468)"/><line x1="870" y1="382" x2="870" y2="356" transform="rotate(210 870 468)"/><line x1="870" y1="382" x2="870" y2="356" transform="rotate(240 870 468)"/><line x1="870" y1="382" x2="870" y2="356" transform="rotate(270 870 468)"/><line x1="870" y1="382" x2="870" y2="356" transform="rotate(300 870 468)"/><line x1="870" y1="382" x2="870" y2="356" transform="rotate(330 870 468)"/></g>
    <g stroke="#C9B8FF" stroke-width="2" opacity="0.5" stroke-linecap="round"><line x1="870" y1="398" x2="870" y2="380" transform="rotate(15 870 468)"/><line x1="870" y1="398" x2="870" y2="380" transform="rotate(45 870 468)"/><line x1="870" y1="398" x2="870" y2="380" transform="rotate(75 870 468)"/><line x1="870" y1="398" x2="870" y2="380" transform="rotate(105 870 468)"/><line x1="870" y1="398" x2="870" y2="380" transform="rotate(135 870 468)"/><line x1="870" y1="398" x2="870" y2="380" transform="rotate(165 870 468)"/><line x1="870" y1="398" x2="870" y2="380" transform="rotate(195 870 468)"/><line x1="870" y1="398" x2="870" y2="380" transform="rotate(225 870 468)"/><line x1="870" y1="398" x2="870" y2="380" transform="rotate(255 870 468)"/><line x1="870" y1="398" x2="870" y2="380" transform="rotate(285 870 468)"/><line x1="870" y1="398" x2="870" y2="380" transform="rotate(315 870 468)"/><line x1="870" y1="398" x2="870" y2="380" transform="rotate(345 870 468)"/></g>
    <circle cx="870" cy="468" r="72" fill="none" stroke="#FFFFFF" stroke-width="1.6" opacity="0.5"/>
    <circle cx="870" cy="468" r="56" fill="none" stroke="#C9B8FF" stroke-width="2" opacity="0.55"/>
    <path d="M870 560 Q870 523 870 486" stroke="#2b2b55" stroke-width="5" stroke-linecap="round" fill="none"/><g transform="rotate(-42 866 530)"><path d="M866 530 Q858 515 866 500 Q874 515 866 530 Z" fill="#4A5E8C"/></g><g transform="rotate(42 874 534)"><path d="M874 534 Q866.5 520 874 506 Q881.5 520 874 534 Z" fill="#4A5E8C"/></g>
    <ellipse cx="870" cy="440" rx="7.2" ry="22" fill="url(#og-gl-petal-4)" opacity="0.92" transform="rotate(0 870 468)"/><ellipse cx="870" cy="440" rx="7.2" ry="22" fill="url(#og-gl-petal-4)" opacity="0.92" transform="rotate(60 870 468)"/><ellipse cx="870" cy="440" rx="7.2" ry="22" fill="url(#og-gl-petal-4)" opacity="0.92" transform="rotate(120 870 468)"/><ellipse cx="870" cy="440" rx="7.2" ry="22" fill="url(#og-gl-petal-4)" opacity="0.92" transform="rotate(180 870 468)"/><ellipse cx="870" cy="440" rx="7.2" ry="22" fill="url(#og-gl-petal-4)" opacity="0.92" transform="rotate(240 870 468)"/><ellipse cx="870" cy="440" rx="7.2" ry="22" fill="url(#og-gl-petal-4)" opacity="0.92" transform="rotate(300 870 468)"/><ellipse cx="870" cy="448" rx="4.8" ry="15" fill="url(#og-gl-petal-4)" opacity="0.7" transform="rotate(30 870 468)"/><ellipse cx="870" cy="448" rx="4.8" ry="15" fill="url(#og-gl-petal-4)" opacity="0.7" transform="rotate(90 870 468)"/><ellipse cx="870" cy="448" rx="4.8" ry="15" fill="url(#og-gl-petal-4)" opacity="0.7" transform="rotate(150 870 468)"/><ellipse cx="870" cy="448" rx="4.8" ry="15" fill="url(#og-gl-petal-4)" opacity="0.7" transform="rotate(210 870 468)"/><ellipse cx="870" cy="448" rx="4.8" ry="15" fill="url(#og-gl-petal-4)" opacity="0.7" transform="rotate(270 870 468)"/><ellipse cx="870" cy="448" rx="4.8" ry="15" fill="url(#og-gl-petal-4)" opacity="0.7" transform="rotate(330 870 468)"/>
    <circle cx="870" cy="468" r="18" fill="url(#og-gl-core-5)" opacity="0.95"/>
    <circle cx="860" cy="458" r="1.7" fill="#FFFFFF"/><circle cx="880" cy="458" r="1.7" fill="#FFFFFF"/><circle cx="870" cy="450" r="1.7" fill="#FFFFFF"/><circle cx="858" cy="476" r="1.7" fill="#FFFFFF"/><circle cx="882" cy="476" r="1.7" fill="#FFFFFF"/><circle cx="870" cy="482" r="1.7" fill="#FFFFFF"/>
    <circle cx="870" cy="468" r="5" fill="#FFFFFF" opacity="0.95"/>
  </g><g>
    <circle cx="980" cy="490.9" r="78" fill="url(#og-laura-8)"/>
    <g stroke="#FFE08A" stroke-width="2.4" opacity="0.5" stroke-linecap="round"><line x1="980" y1="426.9" x2="980" y2="406.9" transform="rotate(0 980 490.9)"/><line x1="980" y1="426.9" x2="980" y2="406.9" transform="rotate(45 980 490.9)"/><line x1="980" y1="426.9" x2="980" y2="406.9" transform="rotate(90 980 490.9)"/><line x1="980" y1="426.9" x2="980" y2="406.9" transform="rotate(135 980 490.9)"/><line x1="980" y1="426.9" x2="980" y2="406.9" transform="rotate(180 980 490.9)"/><line x1="980" y1="426.9" x2="980" y2="406.9" transform="rotate(225 980 490.9)"/><line x1="980" y1="426.9" x2="980" y2="406.9" transform="rotate(270 980 490.9)"/><line x1="980" y1="426.9" x2="980" y2="406.9" transform="rotate(315 980 490.9)"/></g>
    <g stroke="#FFE08A" stroke-width="1.6" opacity="0.35" stroke-linecap="round"><line x1="980" y1="438.9" x2="980" y2="424.9" transform="rotate(22 980 490.9)"/><line x1="980" y1="438.9" x2="980" y2="424.9" transform="rotate(67 980 490.9)"/><line x1="980" y1="438.9" x2="980" y2="424.9" transform="rotate(112 980 490.9)"/><line x1="980" y1="438.9" x2="980" y2="424.9" transform="rotate(157 980 490.9)"/><line x1="980" y1="438.9" x2="980" y2="424.9" transform="rotate(202 980 490.9)"/><line x1="980" y1="438.9" x2="980" y2="424.9" transform="rotate(247 980 490.9)"/><line x1="980" y1="438.9" x2="980" y2="424.9" transform="rotate(292 980 490.9)"/><line x1="980" y1="438.9" x2="980" y2="424.9" transform="rotate(337 980 490.9)"/></g>
    <circle cx="980" cy="490.9" r="50" fill="none" stroke="#FFE08A" stroke-width="1.6" opacity="0.45"/>
    <path d="M980 565 Q980 535.55 980 506.09999999999997" stroke="#1b2a13" stroke-width="4.75" stroke-linecap="round" fill="none"/><g transform="rotate(-46 977.15 540.3)"><path d="M977.15 540.3 Q970.025 527.9499999999999 977.15 515.5999999999999 Q984.275 527.9499999999999 977.15 540.3 Z" fill="#5A8C3E"/></g><g transform="rotate(46 982.85 544.1)"><path d="M982.85 544.1 Q976.2 532.7 982.85 521.3000000000001 Q989.5 532.7 982.85 544.1 Z" fill="#5A8C3E"/></g>
    <ellipse cx="980" cy="471.9" rx="9.5" ry="17.099999999999998" fill="url(#og-gp-7)" opacity="0.85" transform="rotate(0 980 490.9)"/><ellipse cx="980" cy="471.9" rx="9.5" ry="17.099999999999998" fill="url(#og-gp-7)" opacity="0.85" transform="rotate(45 980 490.9)"/><ellipse cx="980" cy="471.9" rx="9.5" ry="17.099999999999998" fill="url(#og-gp-7)" opacity="0.85" transform="rotate(90 980 490.9)"/><ellipse cx="980" cy="471.9" rx="9.5" ry="17.099999999999998" fill="url(#og-gp-7)" opacity="0.85" transform="rotate(135 980 490.9)"/><ellipse cx="980" cy="471.9" rx="9.5" ry="17.099999999999998" fill="url(#og-gp-7)" opacity="0.85" transform="rotate(180 980 490.9)"/><ellipse cx="980" cy="471.9" rx="9.5" ry="17.099999999999998" fill="url(#og-gp-7)" opacity="0.85" transform="rotate(225 980 490.9)"/><ellipse cx="980" cy="471.9" rx="9.5" ry="17.099999999999998" fill="url(#og-gp-7)" opacity="0.85" transform="rotate(270 980 490.9)"/><ellipse cx="980" cy="471.9" rx="9.5" ry="17.099999999999998" fill="url(#og-gp-7)" opacity="0.85" transform="rotate(315 980 490.9)"/><ellipse cx="980" cy="479.5" rx="6.6499999999999995" ry="11.399999999999999" fill="url(#og-gp-7)" opacity="0.95" transform="rotate(22 980 490.9)"/><ellipse cx="980" cy="479.5" rx="6.6499999999999995" ry="11.399999999999999" fill="url(#og-gp-7)" opacity="0.95" transform="rotate(67 980 490.9)"/><ellipse cx="980" cy="479.5" rx="6.6499999999999995" ry="11.399999999999999" fill="url(#og-gp-7)" opacity="0.95" transform="rotate(112 980 490.9)"/><ellipse cx="980" cy="479.5" rx="6.6499999999999995" ry="11.399999999999999" fill="url(#og-gp-7)" opacity="0.95" transform="rotate(157 980 490.9)"/><ellipse cx="980" cy="479.5" rx="6.6499999999999995" ry="11.399999999999999" fill="url(#og-gp-7)" opacity="0.95" transform="rotate(202 980 490.9)"/><ellipse cx="980" cy="479.5" rx="6.6499999999999995" ry="11.399999999999999" fill="url(#og-gp-7)" opacity="0.95" transform="rotate(247 980 490.9)"/><ellipse cx="980" cy="479.5" rx="6.6499999999999995" ry="11.399999999999999" fill="url(#og-gp-7)" opacity="0.95" transform="rotate(292 980 490.9)"/><ellipse cx="980" cy="479.5" rx="6.6499999999999995" ry="11.399999999999999" fill="url(#og-gp-7)" opacity="0.95" transform="rotate(337 980 490.9)"/>
    <circle cx="980" cy="490.9" r="6.6499999999999995" fill="#FFF8D8"/>
    <path d="M0,-3.4 L0.9,-0.9 L3.4,0 L0.9,0.9 L0,3.4 L-0.9,0.9 L-3.4,0 L-0.9,-0.9 Z" fill="#FFF3C0" transform="translate(950 466.9) scale(0.95)"/><path d="M0,-3.4 L0.9,-0.9 L3.4,0 L0.9,0.9 L0,3.4 L-0.9,0.9 L-3.4,0 L-0.9,-0.9 Z" fill="#FFF3C0" transform="translate(1014 472.9) scale(1.045)"/><path d="M0,-3.4 L0.9,-0.9 L3.4,0 L0.9,0.9 L0,3.4 L-0.9,0.9 L-3.4,0 L-0.9,-0.9 Z" fill="#FFF3C0" transform="translate(980 450.9) scale(1.14)"/>
  </g><g>
    <circle cx="700" cy="444" r="78" fill="url(#og-laura-10)"/>
    <g stroke="#FFD44A" stroke-width="2.4" opacity="0.5" stroke-linecap="round"><line x1="700" y1="380" x2="700" y2="360" transform="rotate(0 700 444)"/><line x1="700" y1="380" x2="700" y2="360" transform="rotate(45 700 444)"/><line x1="700" y1="380" x2="700" y2="360" transform="rotate(90 700 444)"/><line x1="700" y1="380" x2="700" y2="360" transform="rotate(135 700 444)"/><line x1="700" y1="380" x2="700" y2="360" transform="rotate(180 700 444)"/><line x1="700" y1="380" x2="700" y2="360" transform="rotate(225 700 444)"/><line x1="700" y1="380" x2="700" y2="360" transform="rotate(270 700 444)"/><line x1="700" y1="380" x2="700" y2="360" transform="rotate(315 700 444)"/></g>
    <g stroke="#FFD44A" stroke-width="1.6" opacity="0.35" stroke-linecap="round"><line x1="700" y1="392" x2="700" y2="378" transform="rotate(22 700 444)"/><line x1="700" y1="392" x2="700" y2="378" transform="rotate(67 700 444)"/><line x1="700" y1="392" x2="700" y2="378" transform="rotate(112 700 444)"/><line x1="700" y1="392" x2="700" y2="378" transform="rotate(157 700 444)"/><line x1="700" y1="392" x2="700" y2="378" transform="rotate(202 700 444)"/><line x1="700" y1="392" x2="700" y2="378" transform="rotate(247 700 444)"/><line x1="700" y1="392" x2="700" y2="378" transform="rotate(292 700 444)"/><line x1="700" y1="392" x2="700" y2="378" transform="rotate(337 700 444)"/></g>
    <circle cx="700" cy="444" r="50" fill="none" stroke="#FFD44A" stroke-width="1.6" opacity="0.45"/>
    <rect x="691" y="430" width="18" height="110" rx="4" fill="#7C4A1E"/>
    <circle cx="700" cy="444" r="34" fill="url(#og-tol-leaf-9)"/>
    <circle cx="672" cy="462" r="22" fill="url(#og-tol-leaf-9)" opacity="0.92"/>
    <circle cx="728" cy="462" r="22" fill="url(#og-tol-leaf-9)" opacity="0.92"/>
    <circle cx="700" cy="418" r="19" fill="url(#og-tol-leaf-9)"/>
    <circle cx="700" cy="444" r="12" fill="#FFE066"/>
    <circle cx="700" cy="444" r="6" fill="#FFFFFF" opacity="0.8"/>
    <path d="M0,-3.4 L0.9,-0.9 L3.4,0 L0.9,0.9 L0,3.4 L-0.9,0.9 L-3.4,0 L-0.9,-0.9 Z" fill="#FFF3C0" transform="translate(660 414) scale(1.3)"/><path d="M0,-3.4 L0.9,-0.9 L3.4,0 L0.9,0.9 L0,3.4 L-0.9,0.9 L-3.4,0 L-0.9,-0.9 Z" fill="#FFF3C0" transform="translate(742 422) scale(1.1)"/><path d="M0,-3.4 L0.9,-0.9 L3.4,0 L0.9,0.9 L0,3.4 L-0.9,0.9 L-3.4,0 L-0.9,-0.9 Z" fill="#FFF3C0" transform="translate(700 388) scale(1.4)"/><path d="M0,-3.4 L0.9,-0.9 L3.4,0 L0.9,0.9 L0,3.4 L-0.9,0.9 L-3.4,0 L-0.9,-0.9 Z" fill="#FFF3C0" transform="translate(650 470) scale(1)"/><path d="M0,-3.4 L0.9,-0.9 L3.4,0 L0.9,0.9 L0,3.4 L-0.9,0.9 L-3.4,0 L-0.9,-0.9 Z" fill="#FFF3C0" transform="translate(752 474) scale(1.2)"/>
  </g><g>
    <circle cx="600" cy="377" r="104" fill="url(#og-taura-13)"/>
    <g stroke="#FFFFFF" stroke-width="2.6" opacity="0.6" stroke-linecap="round"><line x1="600" y1="291" x2="600" y2="265" transform="rotate(0 600 377)"/><line x1="600" y1="291" x2="600" y2="265" transform="rotate(30 600 377)"/><line x1="600" y1="291" x2="600" y2="265" transform="rotate(60 600 377)"/><line x1="600" y1="291" x2="600" y2="265" transform="rotate(90 600 377)"/><line x1="600" y1="291" x2="600" y2="265" transform="rotate(120 600 377)"/><line x1="600" y1="291" x2="600" y2="265" transform="rotate(150 600 377)"/><line x1="600" y1="291" x2="600" y2="265" transform="rotate(180 600 377)"/><line x1="600" y1="291" x2="600" y2="265" transform="rotate(210 600 377)"/><line x1="600" y1="291" x2="600" y2="265" transform="rotate(240 600 377)"/><line x1="600" y1="291" x2="600" y2="265" transform="rotate(270 600 377)"/><line x1="600" y1="291" x2="600" y2="265" transform="rotate(300 600 377)"/><line x1="600" y1="291" x2="600" y2="265" transform="rotate(330 600 377)"/></g>
    <g stroke="#FFE6B8" stroke-width="2" opacity="0.5" stroke-linecap="round"><line x1="600" y1="307" x2="600" y2="289" transform="rotate(15 600 377)"/><line x1="600" y1="307" x2="600" y2="289" transform="rotate(45 600 377)"/><line x1="600" y1="307" x2="600" y2="289" transform="rotate(75 600 377)"/><line x1="600" y1="307" x2="600" y2="289" transform="rotate(105 600 377)"/><line x1="600" y1="307" x2="600" y2="289" transform="rotate(135 600 377)"/><line x1="600" y1="307" x2="600" y2="289" transform="rotate(165 600 377)"/><line x1="600" y1="307" x2="600" y2="289" transform="rotate(195 600 377)"/><line x1="600" y1="307" x2="600" y2="289" transform="rotate(225 600 377)"/><line x1="600" y1="307" x2="600" y2="289" transform="rotate(255 600 377)"/><line x1="600" y1="307" x2="600" y2="289" transform="rotate(285 600 377)"/><line x1="600" y1="307" x2="600" y2="289" transform="rotate(315 600 377)"/><line x1="600" y1="307" x2="600" y2="289" transform="rotate(345 600 377)"/></g>
    <circle cx="600" cy="377" r="72" fill="none" stroke="#FFFFFF" stroke-width="1.6" opacity="0.5"/>
    <circle cx="600" cy="377" r="56" fill="none" stroke="#FFE6B8" stroke-width="2" opacity="0.55"/>
    <rect x="592.16" y="377" width="15.680000000000001" height="168.00000000000003" rx="5.6000000000000005" fill="#8A6E4B"/>
    <rect x="595.52" y="377" width="5.6000000000000005" height="168.00000000000003" rx="3.3600000000000003" fill="#a48e73" opacity="0.5"/>
    <circle cx="600" cy="377" r="80.64000000000001" fill="url(#og-ct-halo-12)"/>
    <g stroke="#FFF6CF" stroke-width="2.688" opacity="0.85" stroke-linecap="round"><line x1="600" y1="307.56" x2="600" y2="273.96" transform="rotate(0 600 377)"/><line x1="600" y1="307.56" x2="600" y2="273.96" transform="rotate(45 600 377)"/><line x1="600" y1="307.56" x2="600" y2="273.96" transform="rotate(90 600 377)"/><line x1="600" y1="307.56" x2="600" y2="273.96" transform="rotate(135 600 377)"/><line x1="600" y1="307.56" x2="600" y2="273.96" transform="rotate(180 600 377)"/><line x1="600" y1="307.56" x2="600" y2="273.96" transform="rotate(225 600 377)"/><line x1="600" y1="307.56" x2="600" y2="273.96" transform="rotate(270 600 377)"/><line x1="600" y1="307.56" x2="600" y2="273.96" transform="rotate(315 600 377)"/></g>
    <g stroke="#FFD66A" stroke-width="2.0160000000000005" opacity="0.7" stroke-linecap="round"><line x1="600" y1="321" x2="600" y2="300.84" transform="rotate(22 600 377)"/><line x1="600" y1="321" x2="600" y2="300.84" transform="rotate(67 600 377)"/><line x1="600" y1="321" x2="600" y2="300.84" transform="rotate(112 600 377)"/><line x1="600" y1="321" x2="600" y2="300.84" transform="rotate(157 600 377)"/><line x1="600" y1="321" x2="600" y2="300.84" transform="rotate(202 600 377)"/><line x1="600" y1="321" x2="600" y2="300.84" transform="rotate(247 600 377)"/><line x1="600" y1="321" x2="600" y2="300.84" transform="rotate(292 600 377)"/><line x1="600" y1="321" x2="600" y2="300.84" transform="rotate(337 600 377)"/></g>
    <path d="M0,-3.4 L0.9,-0.9 L3.4,0 L0.9,0.9 L0,3.4 L-0.9,0.9 L-3.4,0 L-0.9,-0.9 Z" fill="url(#og-ct-core-11)" transform="translate(600 377) scale(11.200000000000001)"/>
    <path d="M0,-3.4 L0.9,-0.9 L3.4,0 L0.9,0.9 L0,3.4 L-0.9,0.9 L-3.4,0 L-0.9,-0.9 Z" fill="url(#og-ct-core-11)" opacity="0.85" transform="translate(600 377) rotate(45) scale(8.96)"/>
    <path d="M0,-3.4 L0.9,-0.9 L3.4,0 L0.9,0.9 L0,3.4 L-0.9,0.9 L-3.4,0 L-0.9,-0.9 Z" fill="#FFFFFF" transform="translate(600 377) scale(4.928000000000001)"/>
    <circle cx="550.72" cy="314.28" r="3.3600000000000003" fill="#FFF1A8"/><circle cx="649.28" cy="314.28" r="3.3600000000000003" fill="#FFF1A8"/><circle cx="600" cy="428.52" r="3.3600000000000003" fill="#FFF1A8"/><circle cx="535.04" cy="392.68" r="3.3600000000000003" fill="#FFF1A8"/><circle cx="664.96" cy="392.68" r="3.3600000000000003" fill="#FFF1A8"/>
  </g>
  
  <g font-family="'Pretendard','Apple SD Gothic Neo','Noto Sans KR',sans-serif">
    <g transform="translate(72 96)">
      <rect x="-14" y="-44" width="150" height="40" rx="20" fill="#FFFFFF" opacity="0.72"/>
      <circle cx="8" cy="-24" r="6" fill="#4F7A37"/>
      <text x="24" y="-18" font-size="20" font-weight="700" fill="#4F7A37" letter-spacing="0.5">HABIT GARDEN</text>
      <text x="0" y="56" font-size="92" font-weight="800" fill="#2A2E27" letter-spacing="-1">습관 정원</text>
      <text x="2" y="108" font-size="34" font-weight="700" fill="#0d0701">전설과 초월이 자라는 정원</text>
      <text x="3" y="150" font-size="23" font-weight="500" fill="#6B7164">매일의 작은 습관이 모여 전설의 꽃을 피웁니다</text>
    </g>
  </g>
  
  <g font-family="'Pretendard','Noto Sans KR',sans-serif" transform="translate(1128 84)" text-anchor="end">
    <g transform="translate(0 0)">
      <rect x="-150" y="-22" width="150" height="34" rx="17" fill="#FFFFFF" opacity="0.82"/>
      <path d="M0,-3.4 L0.9,-0.9 L3.4,0 L0.9,0.9 L0,3.4 L-0.9,0.9 L-3.4,0 L-0.9,-0.9 Z" fill="#E6CBFF" transform="translate(-130 -5) scale(2.6)"/>
      <text x="-16" y="0" font-size="18" font-weight="700" fill="#7A5AA8">초월</text>
    </g>
    <g transform="translate(0 46)">
      <rect x="-150" y="-22" width="150" height="34" rx="17" fill="#FFFFFF" opacity="0.82"/>
      <path d="M0,-3.4 L0.9,-0.9 L3.4,0 L0.9,0.9 L0,3.4 L-0.9,0.9 L-3.4,0 L-0.9,-0.9 Z" fill="#FFC83A" transform="translate(-130 -5) scale(2.6)"/>
      <text x="-16" y="0" font-size="18" font-weight="700" fill="#A07A1E">전설</text>
    </g>
  </g>
  <rect x="6" y="6" width="1188" height="618" rx="20" fill="none" stroke="#FFFFFF" stroke-opacity="0.5" stroke-width="2"/>
</svg>