<svg xmlns="http://www.w3.org/2000/svg" width="1200" height="630" viewBox="0 0 1200 630">
  <defs><clipPath id="og-panel-clip-0"><rect x="28" y="28" width="1144" height="574" rx="24"/></clipPath><linearGradient id="og-sky" x1="0" y1="0" x2="0" y2="1">
    <stop offset="0%" stop-color="#CDEBF6"/>
    <stop offset="62%" stop-color="#EAF6DA"/>
    <stop offset="100%" stop-color="#E7F0DD"/></linearGradient>
  <radialGradient id="og-sun" cx="50%" cy="50%" r="50%">
    <stop offset="0%" stop-color="#FFF1C2" stop-opacity="0.95"/>
    <stop offset="60%" stop-color="#FFF1C2" stop-opacity="0.4"/>
    <stop offset="100%" stop-color="#FFF1C2" stop-opacity="0"/></radialGradient>
  <linearGradient id="og-soil" x1="0" y1="0" x2="0" y2="1">
    <stop offset="0%" stop-color="#A98559" stop-opacity="0"/>
    <stop offset="45%" stop-color="#A98559" stop-opacity="0.5"/>
    <stop offset="100%" stop-color="#7C5C38" stop-opacity="0.5"/></linearGradient><radialGradient id="og-mote-1" cx="50%" cy="50%" r="50%">
    <stop offset="0%" stop-color="#FFF7C8" stop-opacity="0.9"/><stop offset="70%" stop-color="#FFF7C8" stop-opacity="0"/></radialGradient><radialGradient id="og-mote-2" cx="50%" cy="50%" r="50%">
    <stop offset="0%" stop-color="#FFF7C8" stop-opacity="0.9"/><stop offset="70%" stop-color="#FFF7C8" stop-opacity="0"/></radialGradient><radialGradient id="og-mote-3" cx="50%" cy="50%" r="50%">
    <stop offset="0%" stop-color="#FFF7C8" stop-opacity="0.9"/><stop offset="70%" stop-color="#FFF7C8" stop-opacity="0"/></radialGradient><radialGradient id="og-mote-4" cx="50%" cy="50%" r="50%">
    <stop offset="0%" stop-color="#FFF7C8" stop-opacity="0.9"/><stop offset="70%" stop-color="#FFF7C8" stop-opacity="0"/></radialGradient><radialGradient id="og-mote-5" cx="50%" cy="50%" r="50%">
    <stop offset="0%" stop-color="#FFF7C8" stop-opacity="0.9"/><stop offset="70%" stop-color="#FFF7C8" stop-opacity="0"/></radialGradient><radialGradient id="og-sl-6" cx="50%" cy="45%" r="60%">
      <stop offset="0%" stop-color="#FFFFFF"/><stop offset="45%" stop-color="#A9C0FF"/><stop offset="100%" stop-color="#4A4F9E"/></radialGradient><radialGradient id="og-laura-7" cx="50%" cy="50%" r="50%">
    <stop offset="0%" stop-color="#BFD0FF" stop-opacity="0.5"/>
    <stop offset="55%" stop-color="#BFD0FF" stop-opacity="0.2"/>
    <stop offset="100%" stop-color="#BFD0FF" stop-opacity="0"/></radialGradient><linearGradient id="og-eb-petal-8" x1="0%" y1="0%" x2="100%" y2="100%">
      <stop offset="0%" stop-color="#FFB8E8"/><stop offset="50%" stop-color="#C9A0FF"/><stop offset="100%" stop-color="#80E0FF"/></linearGradient>
    <radialGradient id="og-eb-core-9" cx="50%" cy="45%" r="60%">
      <stop offset="0%" stop-color="#FFFFFF"/><stop offset="50%" stop-color="#FF9AD8"/><stop offset="100%" stop-color="#9A6BFF"/></radialGradient><radialGradient id="og-taura-10" cx="50%" cy="50%" r="50%">
    <stop offset="0%" stop-color="#E6CBFF" stop-opacity="0.55"/>
    <stop offset="50%" stop-color="#E6CBFF" stop-opacity="0.24"/>
    <stop offset="100%" stop-color="#E6CBFF" stop-opacity="0"/></radialGradient><linearGradient id="og-ao-11" x1="0%" y1="0%" x2="100%" y2="100%">
      <stop offset="0%" stop-color="#FF8AD0"/><stop offset="50%" stop-color="#9A7BFF"/><stop offset="100%" stop-color="#6FE6E0"/></linearGradient><radialGradient id="og-laura-12" cx="50%" cy="50%" r="50%">
    <stop offset="0%" stop-color="#B79AFF" stop-opacity="0.5"/>
    <stop offset="55%" stop-color="#B79AFF" stop-opacity="0.2"/>
    <stop offset="100%" stop-color="#B79AFF" stop-opacity="0"/></radialGradient><radialGradient id="og-cr-13" cx="50%" cy="42%" r="65%">
      <stop offset="0%" stop-color="#FFFFFF"/><stop offset="50%" stop-color="#FF9AD0"/><stop offset="100%" stop-color="#C0418F"/></radialGradient><radialGradient id="og-laura-14" cx="50%" cy="50%" r="50%">
    <stop offset="0%" stop-color="#FFB8E8" stop-opacity="0.5"/>
    <stop offset="55%" stop-color="#FFB8E8" stop-opacity="0.2"/>
    <stop offset="100%" stop-color="#FFB8E8" stop-opacity="0"/></radialGradient><linearGradient id="og-tol-15" x1="0" y1="0" x2="0" y2="1">
      <stop offset="0%" stop-color="#8caf78"/><stop offset="100%" stop-color="#4a7333"/></linearGradient><radialGradient id="og-laura-16" cx="50%" cy="50%" r="50%">
    <stop offset="0%" stop-color="#FFD44A" stop-opacity="0.5"/>
    <stop offset="55%" stop-color="#FFD44A" stop-opacity="0.2"/>
    <stop offset="100%" stop-color="#FFD44A" stop-opacity="0"/></radialGradient><radialGradient id="og-ct-core-17" cx="50%" cy="42%" r="62%">
      <stop offset="0%" stop-color="#FFFFFF"/><stop offset="45%" stop-color="#FFF1A8"/><stop offset="100%" stop-color="#F2B33A"/></radialGradient>
    <radialGradient id="og-ct-halo-18" cx="50%" cy="50%" r="50%">
      <stop offset="0%" stop-color="#FFE89A" stop-opacity="0.7"/><stop offset="100%" stop-color="#FFE89A" stop-opacity="0"/></radialGradient><radialGradient id="og-taura-19" cx="50%" cy="50%" r="50%">
    <stop offset="0%" stop-color="#FFE6B8" stop-opacity="0.55"/>
    <stop offset="50%" stop-color="#FFE6B8" stop-opacity="0.24"/>
    <stop offset="100%" stop-color="#FFE6B8" stop-opacity="0"/></radialGradient><linearGradient id="og-gl-petal-20" x1="0%" y1="0%" x2="100%" y2="100%">
      <stop offset="0%" stop-color="#C9A0FF"/><stop offset="55%" stop-color="#80B0FF"/><stop offset="100%" stop-color="#3E3E7A"/></linearGradient>
    <radialGradient id="og-gl-core-21" cx="50%" cy="50%" r="55%">
      <stop offset="0%" stop-color="#EAF0FF"/><stop offset="45%" stop-color="#6A78D8"/><stop offset="100%" stop-color="#23234E"/></radialGradient><radialGradient id="og-taura-22" cx="50%" cy="50%" r="50%">
    <stop offset="0%" stop-color="#C9B8FF" stop-opacity="0.55"/>
    <stop offset="50%" stop-color="#C9B8FF" stop-opacity="0.24"/>
    <stop offset="100%" stop-color="#C9B8FF" stop-opacity="0"/></radialGradient><radialGradient id="og-gp-23" cx="50%" cy="50%" r="60%">
      <stop offset="0%" stop-color="#FFF3C0"/><stop offset="55%" stop-color="#FFD24A"/><stop offset="100%" stop-color="#E0902A"/></radialGradient><radialGradient id="og-laura-24" cx="50%" cy="50%" r="50%">
    <stop offset="0%" stop-color="#FFE08A" stop-opacity="0.5"/>
    <stop offset="55%" stop-color="#FFE08A" stop-opacity="0.2"/>
    <stop offset="100%" stop-color="#FFE08A" stop-opacity="0"/></radialGradient></defs>
  <rect width="1200" height="630" fill="#F4F6EE"/>
  <g clip-path="url(#og-panel-clip-0)">
    <rect x="28" y="28" width="1144" height="574" fill="url(#og-sky)"/>
    <circle cx="1132" cy="46" r="172.2" fill="url(#og-sun)"/>
    <circle cx="1062" cy="194" r="1.5" fill="#FFFFFF" opacity="0.50"/><circle cx="103" cy="132" r="1.1" fill="#FFFFFF" opacity="0.58"/><circle cx="264" cy="39" r="0.8" fill="#FFFFFF" opacity="0.35"/><circle cx="604" cy="111" r="0.7" fill="#FFFFFF" opacity="0.41"/><circle cx="413" cy="259" r="2.1" fill="#FFFFFF" opacity="0.49"/><circle cx="446" cy="133" r="0.7" fill="#FFFFFF" opacity="0.46"/><circle cx="1147" cy="346" r="2.0" fill="#FFFFFF" opacity="0.55"/><circle cx="356" cy="208" r="1.6" fill="#FFFFFF" opacity="0.20"/><circle cx="93" cy="173" r="1.9" fill="#FFFFFF" opacity="0.44"/><circle cx="41" cy="358" r="1.5" fill="#FFFFFF" opacity="0.38"/><circle cx="62" cy="93" r="1.2" fill="#FFFFFF" opacity="0.41"/><circle cx="1141" cy="349" r="2.1" fill="#FFFFFF" opacity="0.57"/><circle cx="649" cy="368" r="1.6" fill="#FFFFFF" opacity="0.22"/><circle cx="840" cy="40" r="2.2" fill="#FFFFFF" opacity="0.33"/><circle cx="939" cy="305" r="1.7" fill="#FFFFFF" opacity="0.27"/><circle cx="303" cy="310" r="2.1" fill="#FFFFFF" opacity="0.33"/><circle cx="295" cy="350" r="1.1" fill="#FFFFFF" opacity="0.37"/><circle cx="158" cy="75" r="1.9" fill="#FFFFFF" opacity="0.27"/><circle cx="1062" cy="134" r="1.3" fill="#FFFFFF" opacity="0.36"/><circle cx="331" cy="111" r="1.1" fill="#FFFFFF" opacity="0.29"/><circle cx="417" cy="147" r="0.7" fill="#FFFFFF" opacity="0.40"/><circle cx="619" cy="64" r="1.1" fill="#FFFFFF" opacity="0.58"/><circle cx="755" cy="361" r="1.5" fill="#FFFFFF" opacity="0.44"/><circle cx="274" cy="170" r="1.1" fill="#FFFFFF" opacity="0.40"/><circle cx="163" cy="172" r="1.8" fill="#FFFFFF" opacity="0.54"/><circle cx="637" cy="345" r="1.6" fill="#FFFFFF" opacity="0.49"/><circle cx="318" cy="159" r="1.6" fill="#FFFFFF" opacity="0.53"/><circle cx="479" cy="45" r="2.0" fill="#FFFFFF" opacity="0.49"/><circle cx="98" cy="282" r="1.4" fill="#FFFFFF" opacity="0.36"/><circle cx="325" cy="265" r="0.8" fill="#FFFFFF" opacity="0.31"/>
    <path d="M28 500.115 Q279.68 422.625 554.24 474.285 Q851.68 525.9449999999999 1172 448.45500000000004 L1172 538.86 L28 538.86 Z" fill="#BFE0A0" opacity="0.45"/>
  <path d="M28 525.9449999999999 Q371.2 461.37 691.52 500.115 Q943.2 525.9449999999999 1172 487.2 L1172 538.86 L28 538.86 Z" fill="#BFE0A0" opacity="0.6"/>
    <rect x="28" y="464.24" width="1144" height="137.76" fill="url(#og-soil)"/>
    <circle cx="188.16000000000003" cy="475.72" r="13.200000000000001" fill="url(#og-mote-1)"/><circle cx="394.08" cy="406.84" r="11" fill="url(#og-mote-2)"/><circle cx="645.76" cy="498.68" r="15.400000000000002" fill="url(#og-mote-3)"/><circle cx="851.68" cy="372.4" r="11" fill="url(#og-mote-4)"/><circle cx="1011.84" cy="452.76" r="13.200000000000001" fill="url(#og-mote-5)"/>
    <g opacity="0.85"><ellipse cx="600" cy="415.25120000000004" rx="433.2042" ry="10.3275" fill="#8A6E4B" opacity="0.17"/><g>
    <circle cx="316.85999999999996" cy="328.92620000000005" r="82.62" fill="url(#og-laura-7)"/>
    <g stroke="#BFD0FF" stroke-width="2.5245" opacity="0.45" stroke-linecap="round"><line x1="316.85999999999996" y1="262.37120000000004" x2="316.85999999999996" y2="239.42120000000006" transform="rotate(0 316.85999999999996 328.92620000000005)"/><line x1="316.85999999999996" y1="262.37120000000004" x2="316.85999999999996" y2="239.42120000000006" transform="rotate(45 316.85999999999996 328.92620000000005)"/><line x1="316.85999999999996" y1="262.37120000000004" x2="316.85999999999996" y2="239.42120000000006" transform="rotate(90 316.85999999999996 328.92620000000005)"/><line x1="316.85999999999996" y1="262.37120000000004" x2="316.85999999999996" y2="239.42120000000006" transform="rotate(135 316.85999999999996 328.92620000000005)"/><line x1="316.85999999999996" y1="262.37120000000004" x2="316.85999999999996" y2="239.42120000000006" transform="rotate(180 316.85999999999996 328.92620000000005)"/><line x1="316.85999999999996" y1="262.37120000000004" x2="316.85999999999996" y2="239.42120000000006" transform="rotate(225 316.85999999999996 328.92620000000005)"/><line x1="316.85999999999996" y1="262.37120000000004" x2="316.85999999999996" y2="239.42120000000006" transform="rotate(270 316.85999999999996 328.92620000000005)"/><line x1="316.85999999999996" y1="262.37120000000004" x2="316.85999999999996" y2="239.42120000000006" transform="rotate(315 316.85999999999996 328.92620000000005)"/></g>
    <circle cx="316.85999999999996" cy="328.92620000000005" r="52.785" fill="none" stroke="#BFD0FF" stroke-width="1.6064999999999998" opacity="0.4"/>
    <path d="M316.85999999999996 409.25120000000004 Q316.85999999999996 377.12120000000004 316.85999999999996 344.99120000000005" stroke="#161c2a" stroke-width="4.8195" stroke-linecap="round" fill="none"/>
    <g transform="rotate(-48 313.41749999999996 384.00620000000004)"><path d="M313.41749999999996 384.00620000000004 Q305.95874999999995 371.38370000000003 313.41749999999996 358.76120000000003 Q320.87624999999997 371.38370000000003 313.41749999999996 384.00620000000004 Z" fill="#4A5E8C"/></g>
    <g transform="rotate(48 320.30249999999995 388.59620000000007)"><path d="M320.30249999999995 388.59620000000007 Q313.41749999999996 377.12120000000004 320.30249999999995 365.6462000000001 Q327.18749999999994 377.12120000000004 320.30249999999995 388.59620000000007 Z" fill="#4A5E8C"/></g>
    <ellipse cx="316.85999999999996" cy="305.97620000000006" rx="7.344" ry="22.95" fill="url(#og-sl-6)" opacity="0.92" transform="rotate(0 316.85999999999996 328.92620000000005)"/><ellipse cx="316.85999999999996" cy="305.97620000000006" rx="7.344" ry="22.95" fill="url(#og-sl-6)" opacity="0.92" transform="rotate(60 316.85999999999996 328.92620000000005)"/><ellipse cx="316.85999999999996" cy="305.97620000000006" rx="7.344" ry="22.95" fill="url(#og-sl-6)" opacity="0.92" transform="rotate(120 316.85999999999996 328.92620000000005)"/><ellipse cx="316.85999999999996" cy="305.97620000000006" rx="7.344" ry="22.95" fill="url(#og-sl-6)" opacity="0.92" transform="rotate(180 316.85999999999996 328.92620000000005)"/><ellipse cx="316.85999999999996" cy="305.97620000000006" rx="7.344" ry="22.95" fill="url(#og-sl-6)" opacity="0.92" transform="rotate(240 316.85999999999996 328.92620000000005)"/><ellipse cx="316.85999999999996" cy="305.97620000000006" rx="7.344" ry="22.95" fill="url(#og-sl-6)" opacity="0.92" transform="rotate(300 316.85999999999996 328.92620000000005)"/>
    <circle cx="316.85999999999996" cy="328.92620000000005" r="8.4915" fill="#FFE89A"/>
    <circle cx="316.85999999999996" cy="328.92620000000005" r="3.4425" fill="#FFFFFF"/>
    <path d="M0,-3.4 L0.9,-0.9 L3.4,0 L0.9,0.9 L0,3.4 L-0.9,0.9 L-3.4,0 L-0.9,-0.9 Z" fill="#FFFFFF" transform="translate(287.025 310.56620000000004) scale(1.1475)"/><path d="M0,-3.4 L0.9,-0.9 L3.4,0 L0.9,0.9 L0,3.4 L-0.9,0.9 L-3.4,0 L-0.9,-0.9 Z" fill="#FFFFFF" transform="translate(351.28499999999997 317.45120000000003) scale(1.26225)"/><path d="M0,-3.4 L0.9,-0.9 L3.4,0 L0.9,0.9 L0,3.4 L-0.9,0.9 L-3.4,0 L-0.9,-0.9 Z" fill="#FFFFFF" transform="translate(316.85999999999996 287.61620000000005) scale(1.49175)"/>
  </g><g>
    <circle cx="505.62" cy="328.92620000000005" r="110.16" fill="url(#og-taura-10)"/>
    <g stroke="#FFFFFF" stroke-width="2.754" opacity="0.55" stroke-linecap="round"><line x1="505.62" y1="237.12620000000004" x2="505.62" y2="209.58620000000005" transform="rotate(0 505.62 328.92620000000005)"/><line x1="505.62" y1="237.12620000000004" x2="505.62" y2="209.58620000000005" transform="rotate(30 505.62 328.92620000000005)"/><line x1="505.62" y1="237.12620000000004" x2="505.62" y2="209.58620000000005" transform="rotate(60 505.62 328.92620000000005)"/><line x1="505.62" y1="237.12620000000004" x2="505.62" y2="209.58620000000005" transform="rotate(90 505.62 328.92620000000005)"/><line x1="505.62" y1="237.12620000000004" x2="505.62" y2="209.58620000000005" transform="rotate(120 505.62 328.92620000000005)"/><line x1="505.62" y1="237.12620000000004" x2="505.62" y2="209.58620000000005" transform="rotate(150 505.62 328.92620000000005)"/><line x1="505.62" y1="237.12620000000004" x2="505.62" y2="209.58620000000005" transform="rotate(180 505.62 328.92620000000005)"/><line x1="505.62" y1="237.12620000000004" x2="505.62" y2="209.58620000000005" transform="rotate(210 505.62 328.92620000000005)"/><line x1="505.62" y1="237.12620000000004" x2="505.62" y2="209.58620000000005" transform="rotate(240 505.62 328.92620000000005)"/><line x1="505.62" y1="237.12620000000004" x2="505.62" y2="209.58620000000005" transform="rotate(270 505.62 328.92620000000005)"/><line x1="505.62" y1="237.12620000000004" x2="505.62" y2="209.58620000000005" transform="rotate(300 505.62 328.92620000000005)"/><line x1="505.62" y1="237.12620000000004" x2="505.62" y2="209.58620000000005" transform="rotate(330 505.62 328.92620000000005)"/></g>
    <g stroke="#E6CBFF" stroke-width="2.0655" opacity="0.45" stroke-linecap="round"><line x1="505.62" y1="255.48620000000005" x2="505.62" y2="237.12620000000004" transform="rotate(15 505.62 328.92620000000005)"/><line x1="505.62" y1="255.48620000000005" x2="505.62" y2="237.12620000000004" transform="rotate(45 505.62 328.92620000000005)"/><line x1="505.62" y1="255.48620000000005" x2="505.62" y2="237.12620000000004" transform="rotate(75 505.62 328.92620000000005)"/><line x1="505.62" y1="255.48620000000005" x2="505.62" y2="237.12620000000004" transform="rotate(105 505.62 328.92620000000005)"/><line x1="505.62" y1="255.48620000000005" x2="505.62" y2="237.12620000000004" transform="rotate(135 505.62 328.92620000000005)"/><line x1="505.62" y1="255.48620000000005" x2="505.62" y2="237.12620000000004" transform="rotate(165 505.62 328.92620000000005)"/><line x1="505.62" y1="255.48620000000005" x2="505.62" y2="237.12620000000004" transform="rotate(195 505.62 328.92620000000005)"/><line x1="505.62" y1="255.48620000000005" x2="505.62" y2="237.12620000000004" transform="rotate(225 505.62 328.92620000000005)"/><line x1="505.62" y1="255.48620000000005" x2="505.62" y2="237.12620000000004" transform="rotate(255 505.62 328.92620000000005)"/><line x1="505.62" y1="255.48620000000005" x2="505.62" y2="237.12620000000004" transform="rotate(285 505.62 328.92620000000005)"/><line x1="505.62" y1="255.48620000000005" x2="505.62" y2="237.12620000000004" transform="rotate(315 505.62 328.92620000000005)"/><line x1="505.62" y1="255.48620000000005" x2="505.62" y2="237.12620000000004" transform="rotate(345 505.62 328.92620000000005)"/></g>
    <circle cx="505.62" cy="328.92620000000005" r="75.735" fill="none" stroke="#FFFFFF" stroke-width="1.6064999999999998" opacity="0.45"/>
    <circle cx="505.62" cy="328.92620000000005" r="59.67" fill="none" stroke="#E6CBFF" stroke-width="2.0655" opacity="0.5"/>
    <path d="M505.62 409.25120000000004 Q505.62 378.2687000000001 505.62 347.28620000000006" stroke="#2a2038" stroke-width="5.049" stroke-linecap="round" fill="none"/>
    <g transform="rotate(-46 502.1775 381.7112)"><path d="M502.1775 381.7112 Q494.145 367.94120000000004 502.1775 354.1712 Q510.21000000000004 367.94120000000004 502.1775 381.7112 Z" fill="#5A4F8A"/></g>
    <g transform="rotate(46 509.0625 386.30120000000005)"><path d="M509.0625 386.30120000000005 Q501.60375 373.67870000000005 509.0625 361.05620000000005 Q516.52125 373.67870000000005 509.0625 386.30120000000005 Z" fill="#5A4F8A"/></g>
    <ellipse cx="505.62" cy="303.68120000000005" rx="6.885" ry="16.064999999999998" fill="url(#og-eb-petal-8)" opacity="0.85" transform="rotate(0 505.62 328.92620000000005)"/><ellipse cx="505.62" cy="303.68120000000005" rx="6.885" ry="16.064999999999998" fill="url(#og-eb-petal-8)" opacity="0.85" transform="rotate(30 505.62 328.92620000000005)"/><ellipse cx="505.62" cy="303.68120000000005" rx="6.885" ry="16.064999999999998" fill="url(#og-eb-petal-8)" opacity="0.85" transform="rotate(60 505.62 328.92620000000005)"/><ellipse cx="505.62" cy="303.68120000000005" rx="6.885" ry="16.064999999999998" fill="url(#og-eb-petal-8)" opacity="0.85" transform="rotate(90 505.62 328.92620000000005)"/><ellipse cx="505.62" cy="303.68120000000005" rx="6.885" ry="16.064999999999998" fill="url(#og-eb-petal-8)" opacity="0.85" transform="rotate(120 505.62 328.92620000000005)"/><ellipse cx="505.62" cy="303.68120000000005" rx="6.885" ry="16.064999999999998" fill="url(#og-eb-petal-8)" opacity="0.85" transform="rotate(150 505.62 328.92620000000005)"/><ellipse cx="505.62" cy="303.68120000000005" rx="6.885" ry="16.064999999999998" fill="url(#og-eb-petal-8)" opacity="0.85" transform="rotate(180 505.62 328.92620000000005)"/><ellipse cx="505.62" cy="303.68120000000005" rx="6.885" ry="16.064999999999998" fill="url(#og-eb-petal-8)" opacity="0.85" transform="rotate(210 505.62 328.92620000000005)"/><ellipse cx="505.62" cy="303.68120000000005" rx="6.885" ry="16.064999999999998" fill="url(#og-eb-petal-8)" opacity="0.85" transform="rotate(240 505.62 328.92620000000005)"/><ellipse cx="505.62" cy="303.68120000000005" rx="6.885" ry="16.064999999999998" fill="url(#og-eb-petal-8)" opacity="0.85" transform="rotate(270 505.62 328.92620000000005)"/><ellipse cx="505.62" cy="303.68120000000005" rx="6.885" ry="16.064999999999998" fill="url(#og-eb-petal-8)" opacity="0.85" transform="rotate(300 505.62 328.92620000000005)"/><ellipse cx="505.62" cy="303.68120000000005" rx="6.885" ry="16.064999999999998" fill="url(#og-eb-petal-8)" opacity="0.85" transform="rotate(330 505.62 328.92620000000005)"/>
    <ellipse cx="505.62" cy="296.79620000000006" rx="5.7375" ry="12.622499999999999" fill="#FFE3F4" opacity="0.8" transform="rotate(0 505.62 328.92620000000005)"/><ellipse cx="505.62" cy="296.79620000000006" rx="5.7375" ry="12.622499999999999" fill="#FFE3F4" opacity="0.8" transform="rotate(36 505.62 328.92620000000005)"/><ellipse cx="505.62" cy="296.79620000000006" rx="5.7375" ry="12.622499999999999" fill="#FFE3F4" opacity="0.8" transform="rotate(72 505.62 328.92620000000005)"/><ellipse cx="505.62" cy="296.79620000000006" rx="5.7375" ry="12.622499999999999" fill="#FFE3F4" opacity="0.8" transform="rotate(108 505.62 328.92620000000005)"/><ellipse cx="505.62" cy="296.79620000000006" rx="5.7375" ry="12.622499999999999" fill="#FFE3F4" opacity="0.8" transform="rotate(144 505.62 328.92620000000005)"/><ellipse cx="505.62" cy="296.79620000000006" rx="5.7375" ry="12.622499999999999" fill="#FFE3F4" opacity="0.8" transform="rotate(180 505.62 328.92620000000005)"/><ellipse cx="505.62" cy="296.79620000000006" rx="5.7375" ry="12.622499999999999" fill="#FFE3F4" opacity="0.8" transform="rotate(216 505.62 328.92620000000005)"/><ellipse cx="505.62" cy="296.79620000000006" rx="5.7375" ry="12.622499999999999" fill="#FFE3F4" opacity="0.8" transform="rotate(252 505.62 328.92620000000005)"/><ellipse cx="505.62" cy="296.79620000000006" rx="5.7375" ry="12.622499999999999" fill="#FFE3F4" opacity="0.8" transform="rotate(288 505.62 328.92620000000005)"/><ellipse cx="505.62" cy="296.79620000000006" rx="5.7375" ry="12.622499999999999" fill="#FFE3F4" opacity="0.8" transform="rotate(324 505.62 328.92620000000005)"/>
    <ellipse cx="505.62" cy="289.91120000000006" rx="4.59" ry="10.3275" fill="url(#og-eb-core-9)" opacity="0.9" transform="rotate(0 505.62 328.92620000000005)"/><ellipse cx="505.62" cy="289.91120000000006" rx="4.59" ry="10.3275" fill="url(#og-eb-core-9)" opacity="0.9" transform="rotate(45 505.62 328.92620000000005)"/><ellipse cx="505.62" cy="289.91120000000006" rx="4.59" ry="10.3275" fill="url(#og-eb-core-9)" opacity="0.9" transform="rotate(90 505.62 328.92620000000005)"/><ellipse cx="505.62" cy="289.91120000000006" rx="4.59" ry="10.3275" fill="url(#og-eb-core-9)" opacity="0.9" transform="rotate(135 505.62 328.92620000000005)"/><ellipse cx="505.62" cy="289.91120000000006" rx="4.59" ry="10.3275" fill="url(#og-eb-core-9)" opacity="0.9" transform="rotate(180 505.62 328.92620000000005)"/><ellipse cx="505.62" cy="289.91120000000006" rx="4.59" ry="10.3275" fill="url(#og-eb-core-9)" opacity="0.9" transform="rotate(225 505.62 328.92620000000005)"/><ellipse cx="505.62" cy="289.91120000000006" rx="4.59" ry="10.3275" fill="url(#og-eb-core-9)" opacity="0.9" transform="rotate(270 505.62 328.92620000000005)"/><ellipse cx="505.62" cy="289.91120000000006" rx="4.59" ry="10.3275" fill="url(#og-eb-core-9)" opacity="0.9" transform="rotate(315 505.62 328.92620000000005)"/>
    <circle cx="505.62" cy="328.92620000000005" r="13.77" fill="url(#og-eb-core-9)"/>
    <circle cx="505.62" cy="328.92620000000005" r="6.885" fill="#FFFFFF"/>
  </g><g>
    <circle cx="694.38" cy="333.5162" r="82.62" fill="url(#og-laura-12)"/>
    <g stroke="#B79AFF" stroke-width="2.5245" opacity="0.45" stroke-linecap="round"><line x1="694.38" y1="266.9612" x2="694.38" y2="244.01120000000003" transform="rotate(0 694.38 333.5162)"/><line x1="694.38" y1="266.9612" x2="694.38" y2="244.01120000000003" transform="rotate(45 694.38 333.5162)"/><line x1="694.38" y1="266.9612" x2="694.38" y2="244.01120000000003" transform="rotate(90 694.38 333.5162)"/><line x1="694.38" y1="266.9612" x2="694.38" y2="244.01120000000003" transform="rotate(135 694.38 333.5162)"/><line x1="694.38" y1="266.9612" x2="694.38" y2="244.01120000000003" transform="rotate(180 694.38 333.5162)"/><line x1="694.38" y1="266.9612" x2="694.38" y2="244.01120000000003" transform="rotate(225 694.38 333.5162)"/><line x1="694.38" y1="266.9612" x2="694.38" y2="244.01120000000003" transform="rotate(270 694.38 333.5162)"/><line x1="694.38" y1="266.9612" x2="694.38" y2="244.01120000000003" transform="rotate(315 694.38 333.5162)"/></g>
    <circle cx="694.38" cy="333.5162" r="52.785" fill="none" stroke="#B79AFF" stroke-width="1.6064999999999998" opacity="0.4"/>
    <path d="M694.38 409.25120000000004 Q694.38 380.56370000000004 694.38 351.87620000000004" stroke="#1b252a" stroke-width="4.8195" stroke-linecap="round" fill="none"/>
    <g transform="rotate(-48 690.9375 384.00620000000004)"><path d="M690.9375 384.00620000000004 Q683.47875 371.38370000000003 690.9375 358.76120000000003 Q698.39625 371.38370000000003 690.9375 384.00620000000004 Z" fill="#5A7A8C"/></g>
    <g transform="rotate(48 697.8225 388.59620000000007)"><path d="M697.8225 388.59620000000007 Q690.9375 377.12120000000004 697.8225 365.6462000000001 Q704.7075 377.12120000000004 697.8225 388.59620000000007 Z" fill="#5A7A8C"/></g>
    <ellipse cx="673.725" cy="328.92620000000005" rx="13.77" ry="21.8025" fill="url(#og-ao-11)" opacity="0.9" transform="rotate(-30 673.725 328.92620000000005)"/>
    <ellipse cx="715.035" cy="328.92620000000005" rx="13.77" ry="21.8025" fill="url(#og-ao-11)" opacity="0.9" transform="rotate(30 715.035 328.92620000000005)"/>
    <ellipse cx="694.38" cy="317.45120000000003" rx="11.475" ry="21.8025" fill="url(#og-ao-11)" opacity="0.92"/>
    <ellipse cx="684.0525" cy="340.4012" rx="9.18" ry="14.9175" fill="url(#og-ao-11)" opacity="0.85" transform="rotate(-15 684.0525 340.4012)"/>
    <ellipse cx="704.7075" cy="340.4012" rx="9.18" ry="14.9175" fill="url(#og-ao-11)" opacity="0.85" transform="rotate(15 704.7075 340.4012)"/>
    <circle cx="694.38" cy="333.5162" r="5.7375" fill="#FFFFFF" opacity="0.9"/>
    <path d="M0,-3.4 L0.9,-0.9 L3.4,0 L0.9,0.9 L0,3.4 L-0.9,0.9 L-3.4,0 L-0.9,-0.9 Z" fill="#FFFFFF" transform="translate(666.84 315.1562) scale(1.1475)"/><path d="M0,-3.4 L0.9,-0.9 L3.4,0 L0.9,0.9 L0,3.4 L-0.9,0.9 L-3.4,0 L-0.9,-0.9 Z" fill="#FFFFFF" transform="translate(726.51 322.0412) scale(1.26225)"/><path d="M0,-3.4 L0.9,-0.9 L3.4,0 L0.9,0.9 L0,3.4 L-0.9,0.9 L-3.4,0 L-0.9,-0.9 Z" fill="#FFFFFF" transform="translate(694.38 294.50120000000004) scale(1.377)"/>
  </g><g>
    <circle cx="883.1400000000001" cy="333.5162" r="82.62" fill="url(#og-laura-14)"/>
    <g stroke="#FFB8E8" stroke-width="2.5245" opacity="0.45" stroke-linecap="round"><line x1="883.1400000000001" y1="266.9612" x2="883.1400000000001" y2="244.01120000000003" transform="rotate(0 883.1400000000001 333.5162)"/><line x1="883.1400000000001" y1="266.9612" x2="883.1400000000001" y2="244.01120000000003" transform="rotate(45 883.1400000000001 333.5162)"/><line x1="883.1400000000001" y1="266.9612" x2="883.1400000000001" y2="244.01120000000003" transform="rotate(90 883.1400000000001 333.5162)"/><line x1="883.1400000000001" y1="266.9612" x2="883.1400000000001" y2="244.01120000000003" transform="rotate(135 883.1400000000001 333.5162)"/><line x1="883.1400000000001" y1="266.9612" x2="883.1400000000001" y2="244.01120000000003" transform="rotate(180 883.1400000000001 333.5162)"/><line x1="883.1400000000001" y1="266.9612" x2="883.1400000000001" y2="244.01120000000003" transform="rotate(225 883.1400000000001 333.5162)"/><line x1="883.1400000000001" y1="266.9612" x2="883.1400000000001" y2="244.01120000000003" transform="rotate(270 883.1400000000001 333.5162)"/><line x1="883.1400000000001" y1="266.9612" x2="883.1400000000001" y2="244.01120000000003" transform="rotate(315 883.1400000000001 333.5162)"/></g>
    <circle cx="883.1400000000001" cy="333.5162" r="52.785" fill="none" stroke="#FFB8E8" stroke-width="1.6064999999999998" opacity="0.4"/>
    <path d="M883.1400000000001 409.25120000000004 Q883.1400000000001 379.4162 883.1400000000001 349.5812" stroke="#1b2a13" stroke-width="4.8195" stroke-linecap="round" fill="none"/>
    <g transform="rotate(-48 879.6975000000001 384.00620000000004)"><path d="M879.6975000000001 384.00620000000004 Q872.2387500000001 371.38370000000003 879.6975000000001 358.76120000000003 Q887.1562500000001 371.38370000000003 879.6975000000001 384.00620000000004 Z" fill="#5A8C3E"/></g>
    <g transform="rotate(48 886.5825000000001 388.59620000000007)"><path d="M886.5825000000001 388.59620000000007 Q879.6975000000001 377.12120000000004 886.5825000000001 365.6462000000001 Q893.4675000000001 377.12120000000004 886.5825000000001 388.59620000000007 Z" fill="#5A8C3E"/></g>
    <polygon points="883.1400000000001,292.2062 872.8125000000001,327.7787 883.1400000000001,338.1062 893.4675000000001,327.7787" fill="url(#og-cr-13)" opacity="0.9" transform="rotate(0 883.1400000000001 333.5162)"/><polygon points="883.1400000000001,292.2062 872.8125000000001,327.7787 883.1400000000001,338.1062 893.4675000000001,327.7787" fill="url(#og-cr-13)" opacity="0.9" transform="rotate(45 883.1400000000001 333.5162)"/><polygon points="883.1400000000001,292.2062 872.8125000000001,327.7787 883.1400000000001,338.1062 893.4675000000001,327.7787" fill="url(#og-cr-13)" opacity="0.9" transform="rotate(90 883.1400000000001 333.5162)"/><polygon points="883.1400000000001,292.2062 872.8125000000001,327.7787 883.1400000000001,338.1062 893.4675000000001,327.7787" fill="url(#og-cr-13)" opacity="0.9" transform="rotate(135 883.1400000000001 333.5162)"/><polygon points="883.1400000000001,292.2062 872.8125000000001,327.7787 883.1400000000001,338.1062 893.4675000000001,327.7787" fill="url(#og-cr-13)" opacity="0.9" transform="rotate(180 883.1400000000001 333.5162)"/><polygon points="883.1400000000001,292.2062 872.8125000000001,327.7787 883.1400000000001,338.1062 893.4675000000001,327.7787" fill="url(#og-cr-13)" opacity="0.9" transform="rotate(225 883.1400000000001 333.5162)"/><polygon points="883.1400000000001,292.2062 872.8125000000001,327.7787 883.1400000000001,338.1062 893.4675000000001,327.7787" fill="url(#og-cr-13)" opacity="0.9" transform="rotate(270 883.1400000000001 333.5162)"/><polygon points="883.1400000000001,292.2062 872.8125000000001,327.7787 883.1400000000001,338.1062 893.4675000000001,327.7787" fill="url(#og-cr-13)" opacity="0.9" transform="rotate(315 883.1400000000001 333.5162)"/>
    <polygon points="883.1400000000001,317.45120000000003 868.2225000000001,333.5162 883.1400000000001,354.1712 898.0575000000001,333.5162" fill="#FFFFFF" opacity="0.9"/>
    <circle cx="883.1400000000001" cy="333.5162" r="5.278499999999999" fill="#FFFFFF"/>
    <path d="M0,-3.4 L0.9,-0.9 L3.4,0 L0.9,0.9 L0,3.4 L-0.9,0.9 L-3.4,0 L-0.9,-0.9 Z" fill="#FFFFFF" transform="translate(855.6000000000001 312.86120000000005) scale(1.1475)"/><path d="M0,-3.4 L0.9,-0.9 L3.4,0 L0.9,0.9 L0,3.4 L-0.9,0.9 L-3.4,0 L-0.9,-0.9 Z" fill="#FFFFFF" transform="translate(915.2700000000001 319.74620000000004) scale(1.26225)"/><path d="M0,-3.4 L0.9,-0.9 L3.4,0 L0.9,0.9 L0,3.4 L-0.9,0.9 L-3.4,0 L-0.9,-0.9 Z" fill="#FFFFFF" transform="translate(883.1400000000001 296.7962) scale(1.377)"/>
  </g></g>
    <g><ellipse cx="600" cy="555.6512" rx="509.6520000000001" ry="12.15" fill="#8A6E4B" opacity="0.2"/><g>
    <circle cx="316.85999999999996" cy="452.45120000000003" r="97.2" fill="url(#og-laura-16)"/>
    <g stroke="#FFD44A" stroke-width="2.9700000000000006" opacity="0.45" stroke-linecap="round"><line x1="316.85999999999996" y1="374.1512" x2="316.85999999999996" y2="347.1512" transform="rotate(0 316.85999999999996 452.45120000000003)"/><line x1="316.85999999999996" y1="374.1512" x2="316.85999999999996" y2="347.1512" transform="rotate(45 316.85999999999996 452.45120000000003)"/><line x1="316.85999999999996" y1="374.1512" x2="316.85999999999996" y2="347.1512" transform="rotate(90 316.85999999999996 452.45120000000003)"/><line x1="316.85999999999996" y1="374.1512" x2="316.85999999999996" y2="347.1512" transform="rotate(135 316.85999999999996 452.45120000000003)"/><line x1="316.85999999999996" y1="374.1512" x2="316.85999999999996" y2="347.1512" transform="rotate(180 316.85999999999996 452.45120000000003)"/><line x1="316.85999999999996" y1="374.1512" x2="316.85999999999996" y2="347.1512" transform="rotate(225 316.85999999999996 452.45120000000003)"/><line x1="316.85999999999996" y1="374.1512" x2="316.85999999999996" y2="347.1512" transform="rotate(270 316.85999999999996 452.45120000000003)"/><line x1="316.85999999999996" y1="374.1512" x2="316.85999999999996" y2="347.1512" transform="rotate(315 316.85999999999996 452.45120000000003)"/></g>
    <circle cx="316.85999999999996" cy="452.45120000000003" r="62.1" fill="none" stroke="#FFD44A" stroke-width="1.89" opacity="0.4"/>
    <rect x="304.71" y="447.0512" width="24.3" height="102.60000000000001" rx="5.4" fill="#7C4A1E"/>
    <circle cx="316.85999999999996" cy="452.45120000000003" r="43.2" fill="url(#og-tol-15)"/>
    <circle cx="281.75999999999993" cy="474.05120000000005" r="28.35" fill="url(#og-tol-15)" opacity="0.92"/>
    <circle cx="351.96" cy="474.05120000000005" r="28.35" fill="url(#og-tol-15)" opacity="0.92"/>
    <circle cx="316.85999999999996" cy="420.0512" r="24.3" fill="url(#og-tol-15)"/>
    <circle cx="316.85999999999996" cy="452.45120000000003" r="14.850000000000001" fill="#FFE066"/>
    <circle cx="316.85999999999996" cy="452.45120000000003" r="7.425000000000001" fill="#FFFFFF" opacity="0.8"/>
    <path d="M0,-3.4 L0.9,-0.9 L3.4,0 L0.9,0.9 L0,3.4 L-0.9,0.9 L-3.4,0 L-0.9,-0.9 Z" fill="#FFF3C0" transform="translate(265.55999999999995 414.6512) scale(1.62)"/><path d="M0,-3.4 L0.9,-0.9 L3.4,0 L0.9,0.9 L0,3.4 L-0.9,0.9 L-3.4,0 L-0.9,-0.9 Z" fill="#FFF3C0" transform="translate(370.85999999999996 425.45120000000003) scale(1.35)"/><path d="M0,-3.4 L0.9,-0.9 L3.4,0 L0.9,0.9 L0,3.4 L-0.9,0.9 L-3.4,0 L-0.9,-0.9 Z" fill="#FFF3C0" transform="translate(316.85999999999996 382.25120000000004) scale(1.7550000000000001)"/><path d="M0,-3.4 L0.9,-0.9 L3.4,0 L0.9,0.9 L0,3.4 L-0.9,0.9 L-3.4,0 L-0.9,-0.9 Z" fill="#FFF3C0" transform="translate(252.05999999999995 484.85120000000006) scale(1.215)"/>
  </g><g>
    <circle cx="505.62" cy="436.5512" r="139.20000000000002" fill="url(#og-taura-19)"/>
    <g stroke="#FFFFFF" stroke-width="3.4800000000000004" opacity="0.55" stroke-linecap="round"><line x1="505.62" y1="320.5512" x2="505.62" y2="285.7512" transform="rotate(0 505.62 436.5512)"/><line x1="505.62" y1="320.5512" x2="505.62" y2="285.7512" transform="rotate(30 505.62 436.5512)"/><line x1="505.62" y1="320.5512" x2="505.62" y2="285.7512" transform="rotate(60 505.62 436.5512)"/><line x1="505.62" y1="320.5512" x2="505.62" y2="285.7512" transform="rotate(90 505.62 436.5512)"/><line x1="505.62" y1="320.5512" x2="505.62" y2="285.7512" transform="rotate(120 505.62 436.5512)"/><line x1="505.62" y1="320.5512" x2="505.62" y2="285.7512" transform="rotate(150 505.62 436.5512)"/><line x1="505.62" y1="320.5512" x2="505.62" y2="285.7512" transform="rotate(180 505.62 436.5512)"/><line x1="505.62" y1="320.5512" x2="505.62" y2="285.7512" transform="rotate(210 505.62 436.5512)"/><line x1="505.62" y1="320.5512" x2="505.62" y2="285.7512" transform="rotate(240 505.62 436.5512)"/><line x1="505.62" y1="320.5512" x2="505.62" y2="285.7512" transform="rotate(270 505.62 436.5512)"/><line x1="505.62" y1="320.5512" x2="505.62" y2="285.7512" transform="rotate(300 505.62 436.5512)"/><line x1="505.62" y1="320.5512" x2="505.62" y2="285.7512" transform="rotate(330 505.62 436.5512)"/></g>
    <g stroke="#FFE6B8" stroke-width="2.6100000000000003" opacity="0.45" stroke-linecap="round"><line x1="505.62" y1="343.7512" x2="505.62" y2="320.5512" transform="rotate(15 505.62 436.5512)"/><line x1="505.62" y1="343.7512" x2="505.62" y2="320.5512" transform="rotate(45 505.62 436.5512)"/><line x1="505.62" y1="343.7512" x2="505.62" y2="320.5512" transform="rotate(75 505.62 436.5512)"/><line x1="505.62" y1="343.7512" x2="505.62" y2="320.5512" transform="rotate(105 505.62 436.5512)"/><line x1="505.62" y1="343.7512" x2="505.62" y2="320.5512" transform="rotate(135 505.62 436.5512)"/><line x1="505.62" y1="343.7512" x2="505.62" y2="320.5512" transform="rotate(165 505.62 436.5512)"/><line x1="505.62" y1="343.7512" x2="505.62" y2="320.5512" transform="rotate(195 505.62 436.5512)"/><line x1="505.62" y1="343.7512" x2="505.62" y2="320.5512" transform="rotate(225 505.62 436.5512)"/><line x1="505.62" y1="343.7512" x2="505.62" y2="320.5512" transform="rotate(255 505.62 436.5512)"/><line x1="505.62" y1="343.7512" x2="505.62" y2="320.5512" transform="rotate(285 505.62 436.5512)"/><line x1="505.62" y1="343.7512" x2="505.62" y2="320.5512" transform="rotate(315 505.62 436.5512)"/><line x1="505.62" y1="343.7512" x2="505.62" y2="320.5512" transform="rotate(345 505.62 436.5512)"/></g>
    <circle cx="505.62" cy="436.5512" r="95.70000000000002" fill="none" stroke="#FFFFFF" stroke-width="2.0300000000000002" opacity="0.45"/>
    <circle cx="505.62" cy="436.5512" r="75.4" fill="none" stroke="#FFE6B8" stroke-width="2.6100000000000003" opacity="0.5"/>
    <path d="M505.62 549.6512 Q505.62 506.1512 505.62 462.6512" stroke="#372c1e" stroke-width="7.250000000000001" stroke-linecap="round" fill="none"/>
    <g transform="rotate(-46 501.27 511.95120000000003)"><path d="M501.27 511.95120000000003 Q491.12 494.55120000000005 501.27 477.1512 Q511.41999999999996 494.55120000000005 501.27 511.95120000000003 Z" fill="#7A6A3A"/></g>
    <g transform="rotate(46 509.97 517.7512)"><path d="M509.97 517.7512 Q500.545 501.80120000000005 509.97 485.85120000000006 Q519.395 501.80120000000005 509.97 517.7512 Z" fill="#7A6A3A"/></g>
    <circle cx="505.62" cy="436.5512" r="89.9" fill="url(#og-ct-halo-18)"/>
    <g stroke="#FFF6CF" stroke-width="3.190000000000001" opacity="0.85" stroke-linecap="round"><line x1="505.62" y1="355.35119999999995" x2="505.62" y2="314.7512" transform="rotate(0 505.62 436.5512)"/><line x1="505.62" y1="355.35119999999995" x2="505.62" y2="314.7512" transform="rotate(45 505.62 436.5512)"/><line x1="505.62" y1="355.35119999999995" x2="505.62" y2="314.7512" transform="rotate(90 505.62 436.5512)"/><line x1="505.62" y1="355.35119999999995" x2="505.62" y2="314.7512" transform="rotate(135 505.62 436.5512)"/><line x1="505.62" y1="355.35119999999995" x2="505.62" y2="314.7512" transform="rotate(180 505.62 436.5512)"/><line x1="505.62" y1="355.35119999999995" x2="505.62" y2="314.7512" transform="rotate(225 505.62 436.5512)"/><line x1="505.62" y1="355.35119999999995" x2="505.62" y2="314.7512" transform="rotate(270 505.62 436.5512)"/><line x1="505.62" y1="355.35119999999995" x2="505.62" y2="314.7512" transform="rotate(315 505.62 436.5512)"/></g>
    <g stroke="#FFD66A" stroke-width="2.4650000000000003" opacity="0.7" stroke-linecap="round"><line x1="505.62" y1="372.7512" x2="505.62" y2="346.6512" transform="rotate(22 505.62 436.5512)"/><line x1="505.62" y1="372.7512" x2="505.62" y2="346.6512" transform="rotate(67 505.62 436.5512)"/><line x1="505.62" y1="372.7512" x2="505.62" y2="346.6512" transform="rotate(112 505.62 436.5512)"/><line x1="505.62" y1="372.7512" x2="505.62" y2="346.6512" transform="rotate(157 505.62 436.5512)"/><line x1="505.62" y1="372.7512" x2="505.62" y2="346.6512" transform="rotate(202 505.62 436.5512)"/><line x1="505.62" y1="372.7512" x2="505.62" y2="346.6512" transform="rotate(247 505.62 436.5512)"/><line x1="505.62" y1="372.7512" x2="505.62" y2="346.6512" transform="rotate(292 505.62 436.5512)"/><line x1="505.62" y1="372.7512" x2="505.62" y2="346.6512" transform="rotate(337 505.62 436.5512)"/></g>
    <path d="M0,-3.4 L0.9,-0.9 L3.4,0 L0.9,0.9 L0,3.4 L-0.9,0.9 L-3.4,0 L-0.9,-0.9 Z" fill="url(#og-ct-core-17)" transform="translate(505.62 436.5512) scale(13.05)"/>
    <path d="M0,-3.4 L0.9,-0.9 L3.4,0 L0.9,0.9 L0,3.4 L-0.9,0.9 L-3.4,0 L-0.9,-0.9 Z" fill="url(#og-ct-core-17)" opacity="0.85" transform="translate(505.62 436.5512) rotate(45) scale(10.440000000000001)"/>
    <path d="M0,-3.4 L0.9,-0.9 L3.4,0 L0.9,0.9 L0,3.4 L-0.9,0.9 L-3.4,0 L-0.9,-0.9 Z" fill="#FFFFFF" transform="translate(505.62 436.5512) scale(5.655)"/>
    <circle cx="447.62" cy="364.0512" r="3.7700000000000005" fill="#FFF1A8"/><circle cx="563.62" cy="364.0512" r="3.7700000000000005" fill="#FFF1A8"/><circle cx="505.62" cy="497.4512" r="3.7700000000000005" fill="#FFF1A8"/><circle cx="430.22" cy="451.0512" r="3.7700000000000005" fill="#FFF1A8"/><circle cx="581.02" cy="451.0512" r="3.7700000000000005" fill="#FFF1A8"/>
  </g><g>
    <circle cx="694.38" cy="436.25120000000004" r="129.60000000000002" fill="url(#og-taura-22)"/>
    <g stroke="#FFFFFF" stroke-width="3.24" opacity="0.55" stroke-linecap="round"><line x1="694.38" y1="328.25120000000004" x2="694.38" y2="295.85120000000006" transform="rotate(0 694.38 436.25120000000004)"/><line x1="694.38" y1="328.25120000000004" x2="694.38" y2="295.85120000000006" transform="rotate(30 694.38 436.25120000000004)"/><line x1="694.38" y1="328.25120000000004" x2="694.38" y2="295.85120000000006" transform="rotate(60 694.38 436.25120000000004)"/><line x1="694.38" y1="328.25120000000004" x2="694.38" y2="295.85120000000006" transform="rotate(90 694.38 436.25120000000004)"/><line x1="694.38" y1="328.25120000000004" x2="694.38" y2="295.85120000000006" transform="rotate(120 694.38 436.25120000000004)"/><line x1="694.38" y1="328.25120000000004" x2="694.38" y2="295.85120000000006" transform="rotate(150 694.38 436.25120000000004)"/><line x1="694.38" y1="328.25120000000004" x2="694.38" y2="295.85120000000006" transform="rotate(180 694.38 436.25120000000004)"/><line x1="694.38" y1="328.25120000000004" x2="694.38" y2="295.85120000000006" transform="rotate(210 694.38 436.25120000000004)"/><line x1="694.38" y1="328.25120000000004" x2="694.38" y2="295.85120000000006" transform="rotate(240 694.38 436.25120000000004)"/><line x1="694.38" y1="328.25120000000004" x2="694.38" y2="295.85120000000006" transform="rotate(270 694.38 436.25120000000004)"/><line x1="694.38" y1="328.25120000000004" x2="694.38" y2="295.85120000000006" transform="rotate(300 694.38 436.25120000000004)"/><line x1="694.38" y1="328.25120000000004" x2="694.38" y2="295.85120000000006" transform="rotate(330 694.38 436.25120000000004)"/></g>
    <g stroke="#C9B8FF" stroke-width="2.43" opacity="0.45" stroke-linecap="round"><line x1="694.38" y1="349.85120000000006" x2="694.38" y2="328.25120000000004" transform="rotate(15 694.38 436.25120000000004)"/><line x1="694.38" y1="349.85120000000006" x2="694.38" y2="328.25120000000004" transform="rotate(45 694.38 436.25120000000004)"/><line x1="694.38" y1="349.85120000000006" x2="694.38" y2="328.25120000000004" transform="rotate(75 694.38 436.25120000000004)"/><line x1="694.38" y1="349.85120000000006" x2="694.38" y2="328.25120000000004" transform="rotate(105 694.38 436.25120000000004)"/><line x1="694.38" y1="349.85120000000006" x2="694.38" y2="328.25120000000004" transform="rotate(135 694.38 436.25120000000004)"/><line x1="694.38" y1="349.85120000000006" x2="694.38" y2="328.25120000000004" transform="rotate(165 694.38 436.25120000000004)"/><line x1="694.38" y1="349.85120000000006" x2="694.38" y2="328.25120000000004" transform="rotate(195 694.38 436.25120000000004)"/><line x1="694.38" y1="349.85120000000006" x2="694.38" y2="328.25120000000004" transform="rotate(225 694.38 436.25120000000004)"/><line x1="694.38" y1="349.85120000000006" x2="694.38" y2="328.25120000000004" transform="rotate(255 694.38 436.25120000000004)"/><line x1="694.38" y1="349.85120000000006" x2="694.38" y2="328.25120000000004" transform="rotate(285 694.38 436.25120000000004)"/><line x1="694.38" y1="349.85120000000006" x2="694.38" y2="328.25120000000004" transform="rotate(315 694.38 436.25120000000004)"/><line x1="694.38" y1="349.85120000000006" x2="694.38" y2="328.25120000000004" transform="rotate(345 694.38 436.25120000000004)"/></g>
    <circle cx="694.38" cy="436.25120000000004" r="89.10000000000001" fill="none" stroke="#FFFFFF" stroke-width="1.89" opacity="0.45"/>
    <circle cx="694.38" cy="436.25120000000004" r="70.2" fill="none" stroke="#C9B8FF" stroke-width="2.43" opacity="0.5"/>
    <path d="M694.38 549.6512 Q694.38 503.75120000000004 694.38 457.85120000000006" stroke="#2b2b55" stroke-width="6.21" stroke-linecap="round" fill="none"/>
    <g transform="rotate(-42 688.98 511.8512)"><path d="M688.98 511.8512 Q678.855 492.95120000000003 688.98 474.0512 Q699.105 492.95120000000003 688.98 511.8512 Z" fill="#4A5E8C"/></g>
    <g transform="rotate(42 699.78 517.2512)"><path d="M699.78 517.2512 Q690.3299999999999 499.70120000000003 699.78 482.1512 Q709.23 499.70120000000003 699.78 517.2512 Z" fill="#4A5E8C"/></g>
    <ellipse cx="694.38" cy="401.1512" rx="8.91" ry="27" fill="url(#og-gl-petal-20)" opacity="0.92" transform="rotate(0 694.38 436.25120000000004)"/><ellipse cx="694.38" cy="401.1512" rx="8.91" ry="27" fill="url(#og-gl-petal-20)" opacity="0.92" transform="rotate(60 694.38 436.25120000000004)"/><ellipse cx="694.38" cy="401.1512" rx="8.91" ry="27" fill="url(#og-gl-petal-20)" opacity="0.92" transform="rotate(120 694.38 436.25120000000004)"/><ellipse cx="694.38" cy="401.1512" rx="8.91" ry="27" fill="url(#og-gl-petal-20)" opacity="0.92" transform="rotate(180 694.38 436.25120000000004)"/><ellipse cx="694.38" cy="401.1512" rx="8.91" ry="27" fill="url(#og-gl-petal-20)" opacity="0.92" transform="rotate(240 694.38 436.25120000000004)"/><ellipse cx="694.38" cy="401.1512" rx="8.91" ry="27" fill="url(#og-gl-petal-20)" opacity="0.92" transform="rotate(300 694.38 436.25120000000004)"/><ellipse cx="694.38" cy="411.95120000000003" rx="5.940000000000001" ry="18.900000000000002" fill="url(#og-gl-petal-20)" opacity="0.7" transform="rotate(30 694.38 436.25120000000004)"/><ellipse cx="694.38" cy="411.95120000000003" rx="5.940000000000001" ry="18.900000000000002" fill="url(#og-gl-petal-20)" opacity="0.7" transform="rotate(90 694.38 436.25120000000004)"/><ellipse cx="694.38" cy="411.95120000000003" rx="5.940000000000001" ry="18.900000000000002" fill="url(#og-gl-petal-20)" opacity="0.7" transform="rotate(150 694.38 436.25120000000004)"/><ellipse cx="694.38" cy="411.95120000000003" rx="5.940000000000001" ry="18.900000000000002" fill="url(#og-gl-petal-20)" opacity="0.7" transform="rotate(210 694.38 436.25120000000004)"/><ellipse cx="694.38" cy="411.95120000000003" rx="5.940000000000001" ry="18.900000000000002" fill="url(#og-gl-petal-20)" opacity="0.7" transform="rotate(270 694.38 436.25120000000004)"/><ellipse cx="694.38" cy="411.95120000000003" rx="5.940000000000001" ry="18.900000000000002" fill="url(#og-gl-petal-20)" opacity="0.7" transform="rotate(330 694.38 436.25120000000004)"/>
    <circle cx="694.38" cy="436.25120000000004" r="21.6" fill="url(#og-gl-core-21)" opacity="0.95"/>
    <circle cx="682.23" cy="424.10120000000006" r="2.0250000000000004" fill="#FFFFFF"/><circle cx="706.53" cy="424.10120000000006" r="2.0250000000000004" fill="#FFFFFF"/><circle cx="694.38" cy="414.6512" r="2.0250000000000004" fill="#FFFFFF"/><circle cx="679.53" cy="445.70120000000003" r="2.0250000000000004" fill="#FFFFFF"/><circle cx="709.23" cy="445.70120000000003" r="2.0250000000000004" fill="#FFFFFF"/><circle cx="694.38" cy="453.80120000000005" r="2.0250000000000004" fill="#FFFFFF"/>
    <circle cx="694.38" cy="436.25120000000004" r="6.21" fill="#FFFFFF" opacity="0.95"/>
  </g><g>
    <circle cx="883.1400000000001" cy="452.45120000000003" r="97.2" fill="url(#og-laura-24)"/>
    <g stroke="#FFE08A" stroke-width="2.9700000000000006" opacity="0.45" stroke-linecap="round"><line x1="883.1400000000001" y1="374.1512" x2="883.1400000000001" y2="347.1512" transform="rotate(0 883.1400000000001 452.45120000000003)"/><line x1="883.1400000000001" y1="374.1512" x2="883.1400000000001" y2="347.1512" transform="rotate(45 883.1400000000001 452.45120000000003)"/><line x1="883.1400000000001" y1="374.1512" x2="883.1400000000001" y2="347.1512" transform="rotate(90 883.1400000000001 452.45120000000003)"/><line x1="883.1400000000001" y1="374.1512" x2="883.1400000000001" y2="347.1512" transform="rotate(135 883.1400000000001 452.45120000000003)"/><line x1="883.1400000000001" y1="374.1512" x2="883.1400000000001" y2="347.1512" transform="rotate(180 883.1400000000001 452.45120000000003)"/><line x1="883.1400000000001" y1="374.1512" x2="883.1400000000001" y2="347.1512" transform="rotate(225 883.1400000000001 452.45120000000003)"/><line x1="883.1400000000001" y1="374.1512" x2="883.1400000000001" y2="347.1512" transform="rotate(270 883.1400000000001 452.45120000000003)"/><line x1="883.1400000000001" y1="374.1512" x2="883.1400000000001" y2="347.1512" transform="rotate(315 883.1400000000001 452.45120000000003)"/></g>
    <circle cx="883.1400000000001" cy="452.45120000000003" r="62.1" fill="none" stroke="#FFE08A" stroke-width="1.89" opacity="0.4"/>
    <path d="M883.1400000000001 549.6512 Q883.1400000000001 511.85120000000006 883.1400000000001 474.05120000000005" stroke="#1b2a13" stroke-width="6.21" stroke-linecap="round" fill="none"/>
    <g transform="rotate(-46 879.0900000000001 517.2512)"><path d="M879.0900000000001 517.2512 Q869.6400000000001 501.05120000000005 879.0900000000001 484.85120000000006 Q888.5400000000002 501.05120000000005 879.0900000000001 517.2512 Z" fill="#5A8C3E"/></g>
    <g transform="rotate(46 887.19 522.6512)"><path d="M887.19 522.6512 Q878.4150000000001 507.8012 887.19 492.95120000000003 Q895.965 507.8012 887.19 522.6512 Z" fill="#5A8C3E"/></g>
    <ellipse cx="883.1400000000001" cy="428.1512" rx="12.15" ry="21.6" fill="url(#og-gp-23)" opacity="0.85" transform="rotate(0 883.1400000000001 452.45120000000003)"/><ellipse cx="883.1400000000001" cy="428.1512" rx="12.15" ry="21.6" fill="url(#og-gp-23)" opacity="0.85" transform="rotate(45 883.1400000000001 452.45120000000003)"/><ellipse cx="883.1400000000001" cy="428.1512" rx="12.15" ry="21.6" fill="url(#og-gp-23)" opacity="0.85" transform="rotate(90 883.1400000000001 452.45120000000003)"/><ellipse cx="883.1400000000001" cy="428.1512" rx="12.15" ry="21.6" fill="url(#og-gp-23)" opacity="0.85" transform="rotate(135 883.1400000000001 452.45120000000003)"/><ellipse cx="883.1400000000001" cy="428.1512" rx="12.15" ry="21.6" fill="url(#og-gp-23)" opacity="0.85" transform="rotate(180 883.1400000000001 452.45120000000003)"/><ellipse cx="883.1400000000001" cy="428.1512" rx="12.15" ry="21.6" fill="url(#og-gp-23)" opacity="0.85" transform="rotate(225 883.1400000000001 452.45120000000003)"/><ellipse cx="883.1400000000001" cy="428.1512" rx="12.15" ry="21.6" fill="url(#og-gp-23)" opacity="0.85" transform="rotate(270 883.1400000000001 452.45120000000003)"/><ellipse cx="883.1400000000001" cy="428.1512" rx="12.15" ry="21.6" fill="url(#og-gp-23)" opacity="0.85" transform="rotate(315 883.1400000000001 452.45120000000003)"/><ellipse cx="883.1400000000001" cy="437.6012" rx="8.64" ry="14.850000000000001" fill="url(#og-gp-23)" opacity="0.95" transform="rotate(22 883.1400000000001 452.45120000000003)"/><ellipse cx="883.1400000000001" cy="437.6012" rx="8.64" ry="14.850000000000001" fill="url(#og-gp-23)" opacity="0.95" transform="rotate(67 883.1400000000001 452.45120000000003)"/><ellipse cx="883.1400000000001" cy="437.6012" rx="8.64" ry="14.850000000000001" fill="url(#og-gp-23)" opacity="0.95" transform="rotate(112 883.1400000000001 452.45120000000003)"/><ellipse cx="883.1400000000001" cy="437.6012" rx="8.64" ry="14.850000000000001" fill="url(#og-gp-23)" opacity="0.95" transform="rotate(157 883.1400000000001 452.45120000000003)"/><ellipse cx="883.1400000000001" cy="437.6012" rx="8.64" ry="14.850000000000001" fill="url(#og-gp-23)" opacity="0.95" transform="rotate(202 883.1400000000001 452.45120000000003)"/><ellipse cx="883.1400000000001" cy="437.6012" rx="8.64" ry="14.850000000000001" fill="url(#og-gp-23)" opacity="0.95" transform="rotate(247 883.1400000000001 452.45120000000003)"/><ellipse cx="883.1400000000001" cy="437.6012" rx="8.64" ry="14.850000000000001" fill="url(#og-gp-23)" opacity="0.95" transform="rotate(292 883.1400000000001 452.45120000000003)"/><ellipse cx="883.1400000000001" cy="437.6012" rx="8.64" ry="14.850000000000001" fill="url(#og-gp-23)" opacity="0.95" transform="rotate(337 883.1400000000001 452.45120000000003)"/>
    <circle cx="883.1400000000001" cy="452.45120000000003" r="8.64" fill="#FFF8D8"/>
    <path d="M0,-3.4 L0.9,-0.9 L3.4,0 L0.9,0.9 L0,3.4 L-0.9,0.9 L-3.4,0 L-0.9,-0.9 Z" fill="#FFF3C0" transform="translate(845.3400000000001 422.75120000000004) scale(1.35)"/><path d="M0,-3.4 L0.9,-0.9 L3.4,0 L0.9,0.9 L0,3.4 L-0.9,0.9 L-3.4,0 L-0.9,-0.9 Z" fill="#FFF3C0" transform="translate(926.3400000000001 430.8512) scale(1.4850000000000003)"/><path d="M0,-3.4 L0.9,-0.9 L3.4,0 L0.9,0.9 L0,3.4 L-0.9,0.9 L-3.4,0 L-0.9,-0.9 Z" fill="#FFF3C0" transform="translate(883.1400000000001 401.1512) scale(1.62)"/>
  </g></g>
    
  <g font-family="Pretendard, 'Apple SD Gothic Neo', 'Noto Sans KR', sans-serif" text-anchor="middle">
    <text x="600" y="178" font-size="96" font-weight="800" fill="undefined" letter-spacing="-2">습관 정원</text>
    <text x="600" y="236" font-size="32" font-weight="500" fill="#090f07">매일의 작은 습관이 모여 꽃을 피웁니다</text>
  </g>
    <rect x="28" y="28" width="1144" height="574" rx="24" fill="none" stroke="#2A2E27" stroke-opacity="0.10" stroke-width="38"/>
  </g>
</svg>